<?xml version="1.0" encoding="UTF-8" standalone="no"?>
<svg width="20px" height="20px" viewBox="0 0 20 20" version="1.1" xmlns="http://www.w3.org/2000/svg" xmlns:xlink="http://www.w3.org/1999/xlink" xmlns:sketch="http://www.bohemiancoding.com/sketch/ns">
    <!-- Generator: Sketch 3.3.3 (12072) - http://www.bohemiancoding.com/sketch -->
    <title>activities-icon</title>
    <desc>Created with Sketch.</desc>
    <defs></defs>
    <g id="Page-1" stroke="none" stroke-width="1" fill="none" fill-rule="evenodd" sketch:type="MSPage">
        <g id="activities-icon" sketch:type="MSArtboardGroup" fill="#000000">
            <g id="Group" sketch:type="MSLayerGroup">
                <path d="M1.5,0 C0.673,0 0,0.673 0,1.5 L0,1.5 L0,17.5 C0,18.327 0.673,19 1.5,19 L1.5,19 L7.001,19 L7.001,18 L1.5,18 C1.224,18 1,17.777 1,17.5 L1,17.5 L1,1.5 C1,1.224 1.224,1 1.5,1 L1.5,1 L14.5,1 C14.777,1 15,1.224 15,1.5 L15,1.5 L15,3.5 C15,3.776 15.224,4 15.5,4 L15.5,4 C15.777,4 16,3.776 16,3.5 L16,3.5 L16,1.5 C16,0.673 15.327,0 14.5,0 L14.5,0 L1.5,0 Z" id="Clip-2" sketch:type="MSShapeGroup"></path>
                <path d="M3.5,3 C3.224,3 3,3.224 3,3.5 L3,3.5 C3,3.776 3.224,4 3.5,4 L3.5,4 L10.5,4 C10.776,4 11,3.776 11,3.5 L11,3.5 C11,3.224 10.776,3 10.5,3 L10.5,3 L3.5,3 Z" id="Clip-5" sketch:type="MSShapeGroup"></path>
                <path d="M3.5,5 C3.224,5 3,5.224 3,5.5 L3,5.5 C3,5.776 3.224,6 3.5,6 L3.5,6 L12.5,6 C12.777,6 13,5.776 13,5.5 L13,5.5 C13,5.224 12.777,5 12.5,5 L12.5,5 L3.5,5 Z" id="Clip-8" sketch:type="MSShapeGroup"></path>
                <path d="M3.44444444,7 C3.19911111,7 3,7.224 3,7.5 C3,7.776 3.19911111,8 3.44444444,8 L9.55555556,8 C9.80088889,8 10,7.776 10,7.5 C10,7.224 9.80088889,7 9.55555556,7 L3.44444444,7 Z" id="Clip-11" sketch:type="MSShapeGroup"></path>
                <path d="M3.41666667,9 C3.18666667,9 3,9.224 3,9.5 C3,9.775 3.18666667,10 3.41666667,10 L6.58333333,10 C6.81333333,10 7,9.775 7,9.5 C7,9.224 6.81333333,9 6.58333333,9 L3.41666667,9 Z" id="Clip-14" sketch:type="MSShapeGroup"></path>
                <path d="M3.5,15 C3.224,15 3,15.223 3,15.5 L3,15.5 C3,15.777 3.224,16 3.5,16 L3.5,16 L6.5,16 C6.776,16 7,15.777 7,15.5 L7,15.5 C7,15.223 6.776,15 6.5,15 L6.5,15 L3.5,15 Z" id="Clip-17" sketch:type="MSShapeGroup"></path>
                <path d="M19,14 C19,16.7614982 16.7612171,19 14,19 C11.2387829,19 9,16.7614982 9,14 C9,11.2385018 11.2387829,9 14,9 C16.7612171,9 19,11.2385018 19,14 L19,14 Z M20,14 C20,10.6861889 17.3134737,8 14,8 C10.6865263,8 8,10.6861889 8,14 C8,17.3138111 10.6865263,20 14,20 C17.3134737,20 20,17.3138111 20,14 L20,14 Z" id="Shape" sketch:type="MSShapeGroup"></path>
                <path d="M15.5,14 L13.5,14 L14,14.5 L14,11 C14,10.7238576 13.7761424,10.5 13.5,10.5 C13.2238576,10.5 13,10.7238576 13,11 L13,14.5 C13,14.7761424 13.2238576,15 13.5,15 L15.5,15 C15.7761424,15 16,14.7761424 16,14.5 C16,14.2238576 15.7761424,14 15.5,14 L15.5,14 Z" id="Shape" sketch:type="MSShapeGroup"></path>
            </g>
        </g>
    </g>
</svg>