<?xml version="1.0" encoding="UTF-8" standalone="no"?>
<svg width="20px" height="20px" viewBox="0 0 20 20" version="1.1" xmlns="http://www.w3.org/2000/svg" xmlns:xlink="http://www.w3.org/1999/xlink" xmlns:sketch="http://www.bohemiancoding.com/sketch/ns">
    <!-- Generator: Sketch 3.3.3 (12072) - http://www.bohemiancoding.com/sketch -->
    <title>Artboard 1</title>
    <desc>Created with Sketch.</desc>
    <defs></defs>
    <g id="Page-1" stroke="none" stroke-width="1" fill="none" fill-rule="evenodd" sketch:type="MSPage">
        <g id="Artboard-1" sketch:type="MSArtboardGroup">
            <g id="box-full" sketch:type="MSLayerGroup" transform="translate(-1.000000, 0.000000)">
                <path d="M14.1351774,10.4665605 L14.0011191,12.4665604 L14.4999997,11.9999999 L7.50000016,11.9999999 L8.00000016,12.4999999 L8.00000016,10.5 L8.00000016,10 L7.50000016,10 L2.42120547,10 C1.5938098,10 0.916666667,10.6713076 0.916666667,11.490778 L0.916666667,15.5092222 C0.916666667,16.3315386 1.59040943,17.0000002 2.41143783,17.0000002 L19.4218955,17.0000002 C20.2450108,17.0000002 20.9166667,16.3275944 20.9166667,15.5092222 L20.9166667,11.490778 C20.9166667,10.6663091 20.237982,10 19.4094131,10 L14.634058,10 L14.1664506,10 L14.1351774,10.4665605 L14.1351774,10.4665605 Z M15.1329385,10.5334395 L14.634058,11 L19.4094131,11 C19.6897745,11 19.9166667,11.2227549 19.9166667,11.490778 L19.9166667,15.5092222 C19.9166667,15.7755593 19.6924761,16.0000002 19.4218955,16.0000002 L2.41143783,16.0000002 C2.14094026,16.0000002 1.91666667,15.7774845 1.91666667,15.5092222 L1.91666667,11.490778 C1.91666667,11.2255391 2.14416632,11 2.42120547,11 L7.50000016,11 L7.00000016,10.5 L7.00000016,12.4999999 L7.00000016,12.9999999 L7.50000016,12.9999999 L14.4999997,12.9999999 L14.9676071,12.9999999 L14.9988802,12.5334395 L15.1329385,10.5334395 L15.1329385,10.5334395 Z" id="Shape" fill="#000000" sketch:type="MSShapeGroup"></path>
                <path d="M9.50000004,11 L12.5,11 L12.5,10 L9.50000004,10 L9.50000004,11 L9.50000004,11 Z" id="Shape" fill="#000000" sketch:type="MSShapeGroup"></path>
                <path d="M3.49999999,8.99999996 L18.5000003,8.99999996 L18.5000003,7.99999996 L3.49999999,7.99999996 L3.49999999,8.99999996 L3.49999999,8.99999996 Z" id="Shape" fill="#000000" sketch:type="MSShapeGroup"></path>
                <path d="M3.49999999,6.91666667 L18.5000003,6.91666667 L18.5000003,5.91666667 L3.49999999,5.91666667 L3.49999999,6.91666667 L3.49999999,6.91666667 Z" id="Shape" fill="#000000" sketch:type="MSShapeGroup"></path>
                <path d="M3.49999999,5 L18.5000003,5 L18.5000003,4 L3.49999999,4 L3.49999999,5 L3.49999999,5 Z" id="Shape" fill="#000000" sketch:type="MSShapeGroup"></path>
                <path d="M3.49999999,3 L18.5000003,3 L18.5000003,2 L3.49999999,2 L3.49999999,3 L3.49999999,3 Z" id="Shape" fill="#000000" sketch:type="MSShapeGroup"></path>
                <g id="Invisible_Shape" transform="translate(1.000000, 0.000000)"></g>
            </g>
        </g>
    </g>
</svg>