<?xml version="1.0" encoding="UTF-8" standalone="no"?>
<svg width="20px" height="20px" viewBox="0 0 20 20" version="1.1" xmlns="http://www.w3.org/2000/svg" xmlns:xlink="http://www.w3.org/1999/xlink" xmlns:sketch="http://www.bohemiancoding.com/sketch/ns">
    <!-- Generator: Sketch 3.3.3 (12072) - http://www.bohemiancoding.com/sketch -->
    <title>campaign-icon</title>
    <desc>Created with Sketch.</desc>
    <defs></defs>
    <g id="Page-1" stroke="none" stroke-width="1" fill="none" fill-rule="evenodd" sketch:type="MSPage">
        <g id="campaign-icon" sketch:type="MSArtboardGroup" fill="#000000">
            <g id="Shape-+-Shape-+-Shape" sketch:type="MSLayerGroup" transform="translate(0.000000, 1.000000)">
                <path d="M7.57866819,14.8407914 C4.0588644,14.2296496 1.74257576,11.4873815 1.74257576,7.89318182 C1.74257576,4.03621693 4.86904186,0.909090909 8.72590909,0.909090909 C12.4079351,0.909090909 15.1740633,3.24154226 15.6495557,6.82494246 C15.6825773,7.07379967 15.9110852,7.24876898 16.1599425,7.21574736 C16.4087997,7.18272573 16.583769,6.95421779 16.5507474,6.70536057 C16.0143035,2.66261848 12.8566196,0 8.72590909,0 C4.36692186,0 0.833484848,3.53418283 0.833484848,7.89318182 C0.833484848,11.9302045 3.46852229,15.0498412 7.42314999,15.7364813 C7.67048793,15.7794265 7.90580887,15.6137334 7.94875403,15.3663955 C7.9916992,15.1190575 7.82600612,14.8837366 7.57866819,14.8407914 L7.57866819,14.8407914 Z" id="Shape" sketch:type="MSShapeGroup"></path>
                <path d="M7.07188372,11.3072164 C5.69847839,10.6713426 4.94227273,9.43682153 4.94227273,7.78409091 C4.94227273,5.64363188 6.67723302,3.90909091 8.8180303,3.90909091 C10.5451422,3.90909091 11.7955588,4.63834018 12.3330127,6.00225 C12.4250476,6.23580923 12.6889938,6.35053737 12.922553,6.25850247 C13.1561123,6.16646756 13.2708404,5.90252136 13.1788055,5.66896213 C12.4943255,3.93194052 10.8963618,3 8.8180303,3 C6.17520516,3 4.03318182,5.14150563 4.03318182,7.78409091 C4.03318182,9.78449037 4.98881018,11.3445731 6.68993446,12.1321776 C6.91774121,12.23765 7.18791733,12.1384784 7.29338971,11.9106716 C7.39886209,11.6828648 7.29969048,11.4126887 7.07188372,11.3072164 L7.07188372,11.3072164 Z" id="Shape" sketch:type="MSShapeGroup"></path>
                <path d="M15.4262681,11.6574362 L17.7005106,9.38395137 C17.9522874,9.13225837 17.830101,8.70193398 17.4836249,8.62010916 L8.55938248,6.5125334 C8.23053137,6.43487094 7.93491516,6.73042839 8.01251226,7.05929493 L10.1185729,15.9850525 C10.2003226,16.3315186 10.6305721,16.453807 10.8823294,16.2021326 L13.1838445,13.901375 L12.5411004,13.9013494 L17.0039792,18.3634706 C17.181537,18.5409983 17.469402,18.5409375 17.6468848,18.3633347 L19.889309,16.1193953 C20.0667284,15.9418561 20.0666676,15.6541165 19.8891732,15.4766523 L15.4262944,11.0145311 L15.4262681,11.6574362 L15.4262681,11.6574362 Z M14.7835509,11.0145048 C14.6059787,11.1920178 14.605967,11.4798824 14.7835246,11.65741 L19.2464034,16.1195312 L19.2462676,15.4767881 L17.0038434,17.7207275 L17.646749,17.7205917 L13.1838702,13.2584704 C13.0063754,13.0810058 12.718635,13.0809943 12.541126,13.2584448 L10.2396109,15.5592024 L11.0033674,15.7762825 L8.89730678,6.85052488 L8.35043656,7.39728641 L17.274679,9.50486216 L17.0577933,8.74101995 L14.7835509,11.0145048 L14.7835509,11.0145048 Z" id="Shape" sketch:type="MSShapeGroup"></path>
            </g>
        </g>
    </g>
</svg>