<svg width="30.000000" height="29.238281" viewBox="0.000000 -56.982422 30.000000 29.238281" xmlns="http://www.w3.org/2000/svg"><path d="M3.002930 -48.735352C2.905273 -48.735352 2.810059 -48.754883 2.717285 -48.793945C2.624512 -48.833008 2.543945 -48.886719 2.475586 -48.955078L0.219727 -51.210938C0.073242 -51.357422 0.000000 -51.533203 0.000000 -51.738281C0.000000 -51.943359 0.073242 -52.119141 0.219727 -52.265625C0.366211 -52.412109 0.541992 -52.485352 0.747070 -52.485352C0.952148 -52.485352 1.127930 -52.412109 1.274414 -52.265625L3.002930 -50.551758L9.213867 -56.762695C9.360352 -56.909180 9.538574 -56.982422 9.748535 -56.982422C9.958496 -56.982422 10.136719 -56.909180 10.283203 -56.762695C10.429688 -56.616211 10.502930 -56.440430 10.502930 -56.235352C10.502930 -56.030273 10.429688 -55.854492 10.283203 -55.708008L3.530273 -48.955078C3.461914 -48.886719 3.381348 -48.833008 3.288574 -48.793945C3.195801 -48.754883 3.100586 -48.735352 3.002930 -48.735352ZM29.252930 -50.244141L11.250000 -50.244141C11.044922 -50.244141 10.869141 -50.317383 10.722656 -50.463867C10.576172 -50.610352 10.502930 -50.786133 10.502930 -50.991211C10.502930 -51.196289 10.576172 -51.372070 10.722656 -51.518555C10.869141 -51.665039 11.044922 -51.738281 11.250000 -51.738281L29.252930 -51.738281C29.458008 -51.738281 29.633789 -51.665039 29.780273 -51.518555C29.926758 -51.372070 30.000000 -51.196289 30.000000 -50.991211C30.000000 -50.786133 29.926758 -50.610352 29.780273 -50.463867C29.633789 -50.317383 29.458008 -50.244141 29.252930 -50.244141ZM3.002930 -38.232422C2.905273 -38.232422 2.810059 -38.251953 2.717285 -38.291016C2.624512 -38.330078 2.543945 -38.383789 2.475586 -38.452148L0.219727 -40.708008C0.073242 -40.854492 0.000000 -41.030273 0.000000 -41.235352C0.000000 -41.440430 0.073242 -41.616211 0.219727 -41.762695C0.366211 -41.909180 0.541992 -41.982422 0.747070 -41.982422C0.952148 -41.982422 1.127930 -41.909180 1.274414 -41.762695L3.002930 -40.048828L9.213867 -46.274414C9.360352 -46.420898 9.538574 -46.494141 9.748535 -46.494141C9.958496 -46.494141 10.136719 -46.420898 10.283203 -46.274414C10.429688 -46.127930 10.502930 -45.949707 10.502930 -45.739746C10.502930 -45.529785 10.429688 -45.351562 10.283203 -45.205078L3.530273 -38.452148C3.461914 -38.383789 3.381348 -38.330078 3.288574 -38.291016C3.195801 -38.251953 3.100586 -38.232422 3.002930 -38.232422ZM29.252930 -39.741211L11.250000 -39.741211C11.044922 -39.741211 10.869141 -39.814453 10.722656 -39.960938C10.576172 -40.107422 10.502930 -40.283203 10.502930 -40.488281C10.502930 -40.693359 10.576172 -40.869141 10.722656 -41.015625C10.869141 -41.162109 11.044922 -41.235352 11.250000 -41.235352L29.252930 -41.235352C29.458008 -41.235352 29.633789 -41.162109 29.780273 -41.015625C29.926758 -40.869141 30.000000 -40.693359 30.000000 -40.488281C30.000000 -40.283203 29.926758 -40.107422 29.780273 -39.960938C29.633789 -39.814453 29.458008 -39.741211 29.252930 -39.741211ZM3.002930 -27.744141C2.905273 -27.744141 2.810059 -27.761230 2.717285 -27.795410C2.624512 -27.829590 2.543945 -27.885742 2.475586 -27.963867L0.219727 -30.205078C0.073242 -30.351562 0.000000 -30.529785 0.000000 -30.739746C0.000000 -30.949707 0.073242 -31.127930 0.219727 -31.274414C0.366211 -31.420898 0.541992 -31.494141 0.747070 -31.494141C0.952148 -31.494141 1.127930 -31.420898 1.274414 -31.274414L3.002930 -29.545898L9.213867 -35.771484C9.360352 -35.917969 9.538574 -35.991211 9.748535 -35.991211C9.958496 -35.991211 10.136719 -35.917969 10.283203 -35.771484C10.429688 -35.625000 10.502930 -35.446777 10.502930 -35.236816C10.502930 -35.026855 10.429688 -34.848633 10.283203 -34.702148L3.530273 -27.963867C3.461914 -27.885742 3.381348 -27.829590 3.288574 -27.795410C3.195801 -27.761230 3.100586 -27.744141 3.002930 -27.744141ZM29.252930 -29.238281L11.250000 -29.238281C11.044922 -29.238281 10.869141 -29.311523 10.722656 -29.458008C10.576172 -29.604492 10.502930 -29.780273 10.502930 -29.985352C10.502930 -30.190430 10.576172 -30.366211 10.722656 -30.512695C10.869141 -30.659180 11.044922 -30.732422 11.250000 -30.732422L29.252930 -30.732422C29.458008 -30.732422 29.633789 -30.659180 29.780273 -30.512695C29.926758 -30.366211 30.000000 -30.190430 30.000000 -29.985352C30.000000 -29.780273 29.926758 -29.604492 29.780273 -29.458008C29.633789 -29.311523 29.458008 -29.238281 29.252930 -29.238281ZM29.252930 -29.238281"></path></svg>