<?xml version="1.0" encoding="UTF-8" standalone="no"?>
<svg width="20px" height="20px" viewBox="0 0 20 20" version="1.1" xmlns="http://www.w3.org/2000/svg" xmlns:xlink="http://www.w3.org/1999/xlink" xmlns:sketch="http://www.bohemiancoding.com/sketch/ns">
    <!-- Generator: Sketch 3.3.3 (12072) - http://www.bohemiancoding.com/sketch -->
    <title>clients-icon</title>
    <desc>Created with Sketch.</desc>
    <defs></defs>
    <g id="Page-1" stroke="none" stroke-width="1" fill="none" fill-rule="evenodd" sketch:type="MSPage">
        <g id="clients-icon" sketch:type="MSArtboardGroup" fill="#000000">
            <path d="M13,6.999 L14,6.999 L14,5.999 L13,5.999 L13,6.999 Z M13,8.999 L14,8.999 L14,7.999 L13,7.999 L13,8.999 Z M13,10.999 L14,10.999 L14,9.999 L13,9.999 L13,10.999 Z M13,13 L14,13 L14,12 L13,12 L13,13 Z M13,17 L14,17 L14,16 L13,16 L13,17 Z M13,14.999 L14,14.999 L14,13.999 L13,13.999 L13,14.999 Z M11,6.999 L12,6.999 L12,5.999 L11,5.999 L11,6.999 Z M11,8.999 L12,8.999 L12,7.999 L11,7.999 L11,8.999 Z M11,10.999 L12,10.999 L12,9.999 L11,9.999 L11,10.999 Z M11,13 L12,13 L12,12 L11,12 L11,13 Z M11,17 L12,17 L12,16 L11,16 L11,17 Z M11,14.999 L12,14.999 L12,13.999 L11,13.999 L11,14.999 Z M15,6.999 L16,6.999 L16,5.999 L15,5.999 L15,6.999 Z M15,8.999 L16,8.999 L16,7.999 L15,7.999 L15,8.999 Z M15,10.999 L16,10.999 L16,9.999 L15,9.999 L15,10.999 Z M15,13 L16,13 L16,12 L15,12 L15,13 Z M15,17 L16,17 L16,16 L15,16 L15,17 Z M15,14.999 L16,14.999 L16,13.999 L15,13.999 L15,14.999 Z" id="Fill-1" sketch:type="MSShapeGroup"></path>
            <path d="M9.314,2.733 C8.577,2.954 8,3.73 8,4.499 L8,6.639 L3.359,8.209 C2.637,8.451 2,9.236 2,9.999 L2,19 L1.5,19.001 C1.225,19 1,19.224 1,19.5 C1,19.776 1.225,20 1.5,20 L19.5,20 C19.776,20 20,19.776 20,19.5 C20,19.224 19.776,19 19.5,19 L19,18.999 L19,0.499 C19,0.341 18.925,0.191 18.798,0.098 C18.71,0.033 18.605,-0.001 18.498,-0.001 C18.45,-0.001 18.403,0.006 18.356,0.02 L9.314,2.733 Z M9,4.5 C9,4.171 9.287,3.786 9.602,3.692 L9.602,3.692 L18,1.172 L18,19 L9,19 L9,4.5 Z M3,9.999 C3,9.664 3.357,9.264 3.676,9.158 L3.676,9.158 L8,7.693 L8,19 L7.5,18.999 C7.498,18.999 7.497,19 7.495,19 L7.495,19 L3,19 L3,9.999 Z" id="Clip-20" sketch:type="MSShapeGroup"></path>
            <path d="M5,10.999 L6,10.999 L6,10 L5,10 L5,10.999 Z M5,12.999 L6,12.999 L6,11.998 L5,11.998 L5,12.999 Z M5,16.999 L6,16.999 L6,15.999 L5,15.999 L5,16.999 Z M5,14.999 L6,14.999 L6,13.999 L5,13.999 L5,14.999 Z" id="Fill-22" sketch:type="MSShapeGroup"></path>
        </g>
    </g>
</svg>