<?xml version="1.0" encoding="UTF-8" standalone="no"?>
<svg width="17px" height="15px" viewBox="0 0 17 15" version="1.1" xmlns="http://www.w3.org/2000/svg" xmlns:xlink="http://www.w3.org/1999/xlink">
    <!-- Generator: Sketch 3.8.3 (29802) - http://www.bohemiancoding.com/sketch -->
    <title>Page 1</title>
    <desc>Created with Sketch.</desc>
    <defs>
        <polygon id="path-1" points="0.994925549 10 10.901 10 10.901 0.0931 0.994925549 0.0931 0.994925549 10"></polygon>
    </defs>
    <g id="Timers-+-ACtivity-New-Icons" stroke="none" stroke-width="1" fill="none" fill-rule="evenodd">
        <g id="Page-1">
            <path d="M5.924,12.0171 C5.691,11.9561 5.462,11.8861 5.24,11.8071 C5.096,11.7561 4.937,11.7731 4.807,11.8531 C4.127,12.2781 3.175,12.6121 2.01,12.8401 C2.53,12.0981 2.678,11.3051 2.689,10.6731 C2.69,10.5851 2.669,10.4981 2.626,10.4221 C2.457,10.1191 2.373,9.9871 2.14,9.7031 C1.394,8.7921 1,7.7371 1,6.6521 C1,3.5361 4.226,1.0001 8.191,1.0001 C10.647,1.0001 12.91,1.9741 14.243,3.6051 C14.418,3.8191 14.733,3.8501 14.947,3.6761 C15.161,3.5011 15.193,3.1861 15.018,2.9721 C13.496,1.1111 10.944,0.0001 8.191,0.0001 C3.674,0.0001 0,2.9841 0,6.6521 C0,7.9711 0.472,9.2451 1.367,10.3371 C1.526,10.5321 1.587,10.6181 1.684,10.7871 C1.63,11.7891 1.143,12.5801 0.237,13.1401 C0.039,13.2621 -0.048,13.5051 0.027,13.7251 C0.096,13.9301 0.288,14.0651 0.5,14.0651 C0.517,14.0651 0.534,14.0641 0.551,14.0621 C2.493,13.8641 4.031,13.4481 5.129,12.8261 C5.307,12.8841 5.488,12.9371 5.672,12.9851 C5.938,13.0501 6.212,12.8941 6.282,12.6271 C6.351,12.3601 6.191,12.0871 5.924,12.0171" id="Fill-1" fill="#020302"></path>
            <g id="Group-5" transform="translate(6.000000, 4.909700)">
                <mask id="mask-2" fill="white">
                    <use xlink:href="#path-1"></use>
                </mask>
                <g id="Clip-4"></g>
                <path d="M8.7822,3.5291 L7.4652,2.2121 L8.3772,1.3001 L9.6942,2.6171 L8.7822,3.5291 Z M4.8142,7.4981 L3.4972,6.1811 L6.7582,2.9191 L8.0752,4.2361 L4.8142,7.4981 Z M4.0662,8.2451 L2.2232,8.7721 L2.7492,6.9281 L2.7902,6.8881 L4.1072,8.2051 L4.0662,8.2451 Z M10.7542,2.2641 L8.7312,0.2401 C8.6372,0.1461 8.5102,0.0931 8.3772,0.0931 C8.2452,0.0931 8.1182,0.1461 8.0242,0.2401 L1.9512,6.3131 C1.8912,6.3731 1.8472,6.4471 1.8232,6.5291 L1.0142,9.3631 C0.9642,9.5371 1.0132,9.7251 1.1412,9.8531 C1.2362,9.9491 1.3642,10.0001 1.4952,10.0001 C1.5402,10.0001 1.5872,9.9941 1.6322,9.9811 L4.4652,9.1711 C4.5472,9.1481 4.6222,9.1041 4.6822,9.0441 L10.7542,2.9711 C10.9502,2.7751 10.9502,2.4591 10.7542,2.2641 L10.7542,2.2641 Z" id="Fill-3" fill="#020302" mask="url(#mask-2)"></path>
            </g>
        </g>
    </g>
</svg>