<?xml version="1.0" encoding="UTF-8"?>
<svg width="20px" height="20px" viewBox="0 0 20 20" version="1.1" xmlns="http://www.w3.org/2000/svg" xmlns:xlink="http://www.w3.org/1999/xlink">
    <!-- Generator: Sketch 42 (36781) - http://www.bohemiancoding.com/sketch -->
    <title>email-receipt</title>
    <desc>Created with Sketch.</desc>
    <defs></defs>
    <g id="Page-1" stroke="none" stroke-width="1" fill="none" fill-rule="evenodd">
        <g id="Artboard" fill-rule="nonzero" fill="#000000">
            <g id="email-receipt" transform="translate(-0.500000, -0.500000)">
                <path d="M15.5,7.0080984 C15.4999021,7.00238867 15.4999019,6.99667296 15.5,6.99095383 L15.5,1.9955775 C15.5,1.72149742 15.2786406,1.5 15.0044225,1.5 L5.9955775,1.5 C5.72149742,1.5 5.5,1.72135938 5.5,1.9955775 L5.5,6.99095383 C5.5000981,6.99667296 5.50009789,7.00238867 5.5,7.0080984 L5.5,11.9280205 L5.74282147,12.0629214 C5.98421333,12.197028 6.07118523,12.5014296 5.93707864,12.7428215 C5.80297205,12.9842133 5.4985704,13.0711852 5.25717853,12.9370786 L1.5,10.8497572 L1.5,18.6779661 C1.5,19.1385647 1.83877007,19.5 2.23913043,19.5 L18.7608696,19.5 C19.1612299,19.5 19.5,19.1385647 19.5,18.6779661 L19.5,10.8497572 L15.7428215,12.9370786 C15.5014296,13.0711852 15.197028,12.9842133 15.0629214,12.7428215 C14.9288148,12.5014296 15.0157867,12.197028 15.2571785,12.0629214 L15.5,11.9280205 L15.5,7.00809946 Z M0.5,10.0090828 C0.499878715,10.0027337 0.499878382,9.99637596 0.5,9.99001307 L0.5,9.42372881 C0.5,9.24887257 0.591344112,9.08671981 0.740889301,8.99610556 L4.5,6.71833933 L4.5,1.9955775 C4.5,1.16893503 5.16935218,0.5 5.9955775,0.5 L15.0044225,0.5 C15.831065,0.5 16.5,1.16935218 16.5,1.9955775 L16.5,6.71833933 L20.2591107,8.99610556 C20.4086559,9.08671981 20.5,9.24887257 20.5,9.42372881 L20.5,9.99001175 C20.5001216,9.99637596 20.5001213,10.0027337 20.5,10.0090828 L20.5,18.6779661 C20.5,19.676893 19.7285092,20.5 18.7608696,20.5 L2.23913043,20.5 C1.2714908,20.5 0.5,19.676893 0.5,18.6779661 L0.5,10.0090829 Z M1.5,9.70579833 L4.5,11.372465 L4.5,7.88759287 L1.5,9.70538948 Z M16.5,7.88759287 L16.5,11.372465 L19.5,9.70579833 L16.5,7.88759287 Z M11.0008696,4.29554104 C11.7536542,4.51258633 12.3052174,5.20716535 12.3052174,6.02956522 C12.3052174,6.30570759 12.0813598,6.52956522 11.8052174,6.52956522 C11.529075,6.52956522 11.3052174,6.30570759 11.3052174,6.02956522 C11.3052174,5.58605925 10.9442094,5.22521739 10.5008696,5.22521739 C10.0570119,5.22521739 9.69652174,5.58570759 9.69652174,6.02956522 C9.69652174,6.47394059 10.05666,6.83391304 10.5008696,6.83391304 C11.4963911,6.83391304 12.3052174,7.64236709 12.3052174,8.63826087 C12.3052174,9.46120591 11.7537807,10.155473 11.0008696,10.3723573 L11.0008696,10.8121739 C11.0008696,11.0883163 10.7770119,11.3121739 10.5008696,11.3121739 C10.2247272,11.3121739 10.0008696,11.0883163 10.0008696,10.8121739 L10.0008696,10.3724396 C9.24764304,10.1556804 8.69652174,9.46149165 8.69652174,8.63826087 C8.69652174,8.36211849 8.92037936,8.13826087 9.19652174,8.13826087 C9.47266411,8.13826087 9.69652174,8.36211849 9.69652174,8.63826087 C9.69652174,9.08263624 10.05666,9.4426087 10.5008696,9.4426087 C10.9445614,9.4426087 11.3052174,9.08228469 11.3052174,8.63826087 C11.3052174,8.1947549 10.9442094,7.83391304 10.5008696,7.83391304 C9.50447832,7.83391304 8.69652174,7.02632845 8.69652174,6.02956522 C8.69652174,5.2068795 9.24776953,4.51237877 10.0008696,4.29545861 L10.0008696,3.85565217 C10.0008696,3.5795098 10.2247272,3.35565217 10.5008696,3.35565217 C10.7770119,3.35565217 11.0008696,3.5795098 11.0008696,3.85565217 L11.0008696,4.29554104 Z M12.3486122,14.5 L8.65138782,14.5 L4.2773501,17.4160251 C4.04758575,17.5692014 3.73715108,17.5071144 3.58397485,17.2773501 C3.43079862,17.0475858 3.49288556,16.7371511 3.7226499,16.5839749 L8.2226499,13.5839749 C8.30478366,13.529219 8.40128751,13.5 8.5,13.5 L12.5,13.5 C12.5987125,13.5 12.6952163,13.529219 12.7773501,13.5839749 L17.2773501,16.5839749 C17.5071144,16.7371511 17.5692014,17.0475858 17.4160251,17.2773501 C17.2628489,17.5071144 16.9524142,17.5692014 16.7226499,17.4160251 L12.3486122,14.5 Z" id="Combined-Shape"></path>
            </g>
        </g>
    </g>
</svg>