<?xml version="1.0" encoding="UTF-8"?>
<svg width="24px" height="24px" viewBox="0 0 24 24" version="1.1" xmlns="http://www.w3.org/2000/svg" xmlns:xlink="http://www.w3.org/1999/xlink">
    <!-- Generator: Sketch 40 (33762) - http://www.bohemiancoding.com/sketch -->
    <title>Outline_Icons</title>
    <desc>Created with Sketch.</desc>
    <defs></defs>
    <g id="Page-1" stroke="none" stroke-width="1" fill="none" fill-rule="evenodd">
        <g id="Outline_Icons" fill="#000000">
            <g id="Group">
                <path d="M1,12 C1,5.93514237 5.93514237,1 12,1 C15.0244212,1 17.948331,2.26526388 20.018478,4.47023339 L20.040618,3.76361755 L17.125618,6.50261755 L17.8324854,6.52472764 C16.3047963,4.89789328 14.2307972,4 12,4 C7.58819247,4 4,7.58852275 4,12 C4,16.4121424 7.58785763,20 12,20 C15.4233052,20 18.4388564,17.8408898 19.5585309,14.6663089 L19.793538,14 L19.087,14 L13.5,14 L14,14.5 L14,10.5 L13.5,11 L23.5,11 L23.0000005,10.4992871 L22.9970005,12.6032871 C22.6944852,18.4228 17.8645044,23 12,23 C5.93514237,23 1,18.0648576 1,12 Z M23.9963286,12.629902 L23.9999995,10.5007129 L24.0007134,10 L23.5,10 L13.5,10 L13,10 L13,10.5 L13,14.5 L13,15 L13.5,15 L19.087,15 L18.6154691,14.3336911 C17.6361154,17.1104248 14.997014,19 12,19 C8.14014237,19 5,15.8598576 5,12 C5,8.1407869 8.14049782,5 12,5 C13.9546187,5 15.7648035,5.78368057 17.1035146,7.20927236 L17.4458899,7.57386746 L17.810382,7.23138245 L20.725382,4.49238245 L21.0896159,4.15014003 L20.747522,3.78576661 C18.4883384,1.37944906 15.300557,0 12,0 C5.38285763,0 0,5.38285763 0,12 C0,18.6171424 5.38285763,24 12,24 C18.3962388,24 23.6655532,19.0064592 23.9963286,12.629902 Z" id="Shape"></path>
                <polygon id="Shape" points="2.6603022 5.28852934 2.0356978 6.06947066 5.1876978 8.59047066 5.8123022 7.80952934"></polygon>
                <polygon id="Shape" points="2.21242965 18.1874321 2.88157035 18.9305679 5.91457035 16.1995679 5.24542965 15.4564321"></polygon>
                <polygon id="Shape" points="18.7672816 21.3651665 19.5147184 20.7008335 16.8447184 17.6968335 16.0972816 18.3611665"></polygon>
            </g>
        </g>
    </g>
</svg>