<?xml version="1.0" encoding="UTF-8" standalone="no"?>
<svg width="24px" height="12px" viewBox="0 0 24 12" version="1.1" xmlns="http://www.w3.org/2000/svg" xmlns:xlink="http://www.w3.org/1999/xlink" xmlns:sketch="http://www.bohemiancoding.com/sketch/ns">
    <!-- Generator: Sketch 3.4 (15575) - http://www.bohemiancoding.com/sketch -->
    <title>Infinite</title>
    <desc>Created with Sketch.</desc>
    <defs></defs>
    <g id="Page-1" stroke="none" stroke-width="1" fill="none" fill-rule="evenodd" sketch:type="MSPage">
        <g id="Infinite" sketch:type="MSArtboardGroup" fill="#000000">
            <path d="M12.5839749,8.7773501 C12.6558919,8.88522568 12.7874454,9.06345947 12.9752644,9.2888422 C13.2851819,9.66074329 13.6441865,10.0321273 14.0496043,10.3796283 C15.2262683,11.3881975 16.5518405,12 18,12 C21.2884027,12 24,9.30094382 24,6 C24,2.69905618 21.2884027,0 18,0 C15.6622944,0 14.3083157,1.44133209 11.5781693,5.73156225 C9.05831573,9.69133209 7.82896102,11 6,11 C3.23850178,11 1,8.76121707 1,6 C1,3.25238132 3.26284699,1 6,1 C7.14565168,1 8.1444134,1.58261101 8.9953717,2.57539569 C9.30136741,2.93239069 9.56503483,3.31690566 9.78462843,3.70119447 C9.91520316,3.92970025 10.0006798,4.10421509 10.0404275,4.19695965 C10.1492053,4.45077454 10.4431448,4.56835033 10.6969596,4.45957252 C10.9507745,4.3507947 11.0683503,4.05685524 10.9595725,3.80304035 C10.9055702,3.67703491 10.8035468,3.46873725 10.6528716,3.20505553 C10.4037152,2.76903184 10.1048826,2.33323431 9.7546283,1.92460431 C8.7305866,0.729888993 7.47934832,0 6,0 C2.71159732,0 0,2.69905618 0,6 C0,9.31347371 2.68618891,12 6,12 C8.33770565,12 9.69168427,10.5586679 12.4218307,6.26843775 C14.9416843,2.30866791 16.171039,1 18,1 C20.737153,1 23,3.25238132 23,6 C23,8.74761868 20.737153,11 18,11 C16.8231595,11 15.7112317,10.4868025 14.7003957,9.6203717 C14.3401885,9.3116227 14.0195056,8.97988171 13.7434856,8.6486578 C13.5797421,8.45216553 13.4691081,8.30227432 13.4160251,8.2226499 C13.2628489,7.99288556 12.9524142,7.93079862 12.7226499,8.08397485 C12.4928856,8.23715108 12.4307986,8.54758575 12.5839749,8.7773501 L12.5839749,8.7773501 Z" id="Shape" sketch:type="MSShapeGroup"></path>
        </g>
    </g>
</svg>