<?xml version="1.0" encoding="utf-8"?>
<!-- Generator: Adobe Illustrator 19.1.0, SVG Export Plug-In . SVG Version: 6.00 Build 0)  -->
<svg version="1.1" id="Layer_1" xmlns="http://www.w3.org/2000/svg" xmlns:xlink="http://www.w3.org/1999/xlink" x="0px" y="0px"
	 viewBox="-297 389 16.1 16" style="enable-background:new -297 389 16.1 16;" xml:space="preserve">
<path class="st0" d="M-289.9,393.8c0-0.4,0.3-0.8,0.8-0.8h0.5c0.4,0,0.8,0.3,0.8,0.8v0.5c0,0.4-0.3,0.8-0.8,0.8h-0.5
	c-0.4,0-0.8-0.3-0.8-0.8V393.8z"/>
<path class="st0" d="M-286.9,401h-4v-1h1v-3h-1v-1h3v4h1V401z"/>
<path class="st1" d="M-289,389c-4.4,0-8,3.6-8,8s3.6,8,8,8s8-3.6,8-8S-284.6,389-289,389z M-289,403.5c-3.6,0-6.5-2.9-6.5-6.5
	s2.9-6.5,6.5-6.5s6.5,2.9,6.5,6.5S-285.4,403.5-289,403.5z"/>
<path class="st0" d="M-288.9,389c-4.4,0-8,3.6-8,8s3.6,8,8,8s8-3.6,8-8S-284.5,389-288.9,389z M-288.9,404c-3.9,0-7-3.1-7-7
	s3.1-7,7-7s7,3.1,7,7S-285,404-288.9,404z"/>
</svg>
