<?xml version="1.0" encoding="UTF-8" standalone="no"?>
<svg width="20px" height="20px" viewBox="0 0 20 20" version="1.1" xmlns="http://www.w3.org/2000/svg" xmlns:xlink="http://www.w3.org/1999/xlink" xmlns:sketch="http://www.bohemiancoding.com/sketch/ns">
    <!-- Generator: Sketch 3.3.3 (12072) - http://www.bohemiancoding.com/sketch -->
    <title>invoices-icon</title>
    <desc>Created with Sketch.</desc>
    <defs></defs>
    <g id="Page-1" stroke="none" stroke-width="1" fill="none" fill-rule="evenodd" sketch:type="MSPage">
        <g id="invoices-icon" sketch:type="MSArtboardGroup" fill="#000000">
            <g id="Imported-Layers" sketch:type="MSLayerGroup" transform="translate(2.000000, 0.000000)">
                <path d="M16,18.5 C16,18.776 15.775,19 15.5,19 L5.5,19 C5.225,19 5,18.776 5,18.5 L5,9 L7.5,9 C8.327,9 9,8.327 9,7.5 L9,5 L15.5,5 C15.775,5 16,5.224 16,5.5 L16,18.5 Z M8,5.207 L8,7.5 C8,7.776 7.775,8 7.5,8 L5.207,8 L8,5.207 Z M1.5,15 C1.225,15 1,14.776 1,14.5 L1,5 L3.5,5 C4.327,5 5,4.327 5,3.5 L5,1 L11.5,1 C11.775,1 12,1.224 12,1.5 L12,4 L8,4 C7.867,4 7.74,4.053 7.646,4.146 L4.146,7.646 C4.052,7.74 4,7.867 4,8 L4,15 L1.5,15 Z M4,1.207 L4,3.5 C4,3.776 3.775,4 3.5,4 L1.207,4 L4,1.207 Z M15.5,4 L13,4 L13,1.5 C13,0.673 12.327,0 11.5,0 L4,0 C3.867,0 3.74,0.053 3.646,0.146 L0.146,3.646 C0.052,3.74 0,3.867 0,4 L0,14.5 C0,15.327 0.673,16 1.5,16 L4,16 L4,18.5 C4,19.327 4.673,20 5.5,20 L15.5,20 C16.327,20 17,19.327 17,18.5 L17,5.5 C17,4.673 16.327,4 15.5,4 Z M12.6758,12 L9.1758,12 L9.1758,11 L12.6758,11 C12.9508,11 13.1758,10.776 13.1758,10.5 C13.1758,10.224 12.9508,10 12.6758,10 L11.1758,10 L11.1758,9.5 C11.1758,9.224 10.9508,9 10.6758,9 C10.4008,9 10.1758,9.224 10.1758,9.5 L10.1758,10 L8.6758,10 C8.4008,10 8.1758,10.224 8.1758,10.5 L8.1758,12.5 C8.1758,12.776 8.4008,13 8.6758,13 L12.1758,13 L12.1758,14 L8.6758,14 C8.4008,14 8.1758,14.224 8.1758,14.5 C8.1758,14.776 8.4008,15 8.6758,15 L10.1758,15 L10.1758,15.5 C10.1758,15.776 10.4008,16 10.6758,16 C10.9508,16 11.1758,15.776 11.1758,15.5 L11.1758,15 L12.6758,15 C12.9508,15 13.1758,14.776 13.1758,14.5 L13.1758,12.5 C13.1758,12.224 12.9508,12 12.6758,12 Z" id="Fill-1" sketch:type="MSShapeGroup"></path>
            </g>
        </g>
    </g>
</svg>