<?xml version="1.0" encoding="utf-8"?>
<!-- Generator: Adobe Illustrator 21.0.0, SVG Export Plug-In . SVG Version: 6.00 Build 0)  -->
<svg version="1.1" id="Layer_2" xmlns="http://www.w3.org/2000/svg" xmlns:xlink="http://www.w3.org/1999/xlink" x="0px" y="0px"
	 viewBox="0 0 20 20" style="enable-background:new 0 0 20 20;" xml:space="preserve">
<g>
	<g>
		<g transform="translate(0.000000, 4.913386)">
			<path d="M13.9,14.8h-2.3c-0.4,0-0.8-0.4-0.8-0.8c-0.2-2-1.9-3.9-3.9-5.8C5.8,7.1,4.7,5.9,3.8,4.7c-1-1.4-1.5-2.7-1.6-4
				c0-0.3,0.1-0.6,0.3-0.7C2.6-0.2,2.8-0.3,3-0.3c0.1,0,0.2,0,0.3,0.1c0.7,0.3,1.5,0.5,2.3,0.7C6,0.5,6.2,0.8,6.3,1.1
				c0.5,1.4,1.9,2.8,3.3,4.3c1.4-1.5,2.8-2.9,3.3-4.3c0.1-0.3,0.4-0.5,0.7-0.6c0.8-0.2,1.6-0.4,2.4-0.7c0.4-0.1,0.6,0,0.8,0.1
				c0.2,0.2,0.3,0.5,0.3,0.7c-0.1,1.3-0.7,2.7-1.6,4c-0.9,1.3-2,2.4-3.1,3.5l-0.1,0.1c0.2,0.3,0.4,0.6,0.6,0.9
				c1.1,1.6,1.7,3.2,1.8,4.8c0,0.2-0.1,0.4-0.2,0.6C14.4,14.7,14.1,14.8,13.9,14.8z M11.7,13.9C11.7,13.9,11.7,13.9,11.7,13.9
				C11.7,13.9,11.7,13.9,11.7,13.9z M13.9,13.9L13.9,13.9L13.9,13.9L13.9,13.9z M11.7,13.9h2.1c-0.1-1.4-0.6-2.7-1.6-4.2
				C12,9.4,11.8,9,11.5,8.7c-0.2-0.3-0.2-0.7,0-1l0.3-0.3c1.1-1.1,2.2-2.2,3-3.4c0.8-1.2,1.3-2.3,1.4-3.4c-0.8,0.3-1.6,0.5-2.4,0.7
				c-0.6,1.6-2,3.1-3.6,4.7C9.9,6.4,9.3,6.4,9,6c-1.5-1.6-3-3-3.6-4.6C4.7,1.2,3.9,1,3.1,0.7c0.1,1.1,0.6,2.3,1.4,3.4
				c0.8,1.2,1.9,2.3,3,3.4C9.6,9.6,11.5,11.5,11.7,13.9z M3,0.6C3,0.6,3,0.6,3,0.6C3,0.6,3,0.6,3,0.6L3,0.6z M16.2,0.5
				C16.2,0.5,16.2,0.5,16.2,0.5C16.2,0.5,16.2,0.5,16.2,0.5z"/>
			<path d="M7.7,14.8H5.4c-0.2,0-0.5-0.1-0.6-0.3c-0.1-0.1-0.2-0.3-0.2-0.6c0.1-1.5,0.6-3,1.6-4.6C6.3,9.2,6.6,9,6.9,9
				c0.2,0,0.4,0.1,0.6,0.2l0,0C8.2,10,8.7,10.5,9.1,11c0.2,0.2,0.3,0.7,0.1,1.1c-0.3,0.6-0.5,1.3-0.6,1.9
				C8.6,14.5,8.2,14.8,7.7,14.8z M7.7,14C7.7,14,7.7,14,7.7,14C7.7,14,7.7,14,7.7,14z M5.5,13.9h2.2c0.1-0.7,0.3-1.5,0.7-2.2
				C8,11.1,7.5,10.6,6.9,10C6,11.3,5.6,12.6,5.5,13.9z M6.8,9.9L6.8,9.9C6.8,9.9,6.8,9.9,6.8,9.9S6.8,9.9,6.8,9.9z M7,9.9
				C7,9.9,7,9.9,7,9.9C7,9.9,7,9.9,7,9.9z"/>
			<path d="M9.7,4.4c-0.3,0-0.5-0.1-0.6-0.2C8.3,3.4,7.8,2.5,7.6,2c0-0.1-0.1-0.2-0.1-0.3c0-0.4,0.4-0.8,0.8-0.8c0.1,0,0.2,0,0.3,0
				c0.2,0,0.6,0,1,0c0.5,0,0.8,0,1.1,0c0.1,0,0.2,0,0.2,0c0.4,0,0.8,0.4,0.8,0.8c0,0.1,0,0.2-0.1,0.3c-0.2,0.4-0.7,1.3-1.4,2.1
				C10.1,4.3,10,4.4,9.7,4.4z M9.7,3.5C9.7,3.5,9.7,3.5,9.7,3.5L9.7,3.5L9.7,3.5z M8.5,1.8c0.2,0.4,0.6,1,1.1,1.6
				c0.6-0.6,1-1.2,1.1-1.6c0,0,0,0,0,0c-0.2,0-0.6,0-1.1,0C9.2,1.9,8.8,1.8,8.5,1.8C8.5,1.8,8.5,1.8,8.5,1.8z"/>
		</g>
		<g transform="translate(2.141732, 0.000000)">
			<g>
				<g transform="translate(0.000000, 1.133858)">
					<path d="M3.5,3.6c-0.9,0-1.7-0.8-1.7-1.7c0-0.9,0.8-1.7,1.7-1.7c0.9,0,1.7,0.8,1.7,1.7C5.2,2.8,4.5,3.6,3.5,3.6z M3.5,1.1
						c-0.4,0-0.8,0.3-0.8,0.8c0,0.4,0.3,0.8,0.8,0.8s0.8-0.3,0.8-0.8C4.3,1.5,3.9,1.1,3.5,1.1z"/>
					<path d="M11.5,3.6c-0.9,0-1.7-0.8-1.7-1.7c0-0.9,0.8-1.7,1.7-1.7s1.7,0.8,1.7,1.7C13.2,2.8,12.5,3.6,11.5,3.6z M11.5,1.1
						c-0.4,0-0.8,0.3-0.8,0.8c0,0.4,0.3,0.8,0.8,0.8s0.8-0.3,0.8-0.8C12.3,1.5,11.9,1.1,11.5,1.1z"/>
				</g>
				<path d="M7.5,3.6c-0.9,0-1.7-0.8-1.7-1.7c0-0.9,0.8-1.7,1.7-1.7c0.9,0,1.7,0.8,1.7,1.7C9.2,2.8,8.5,3.6,7.5,3.6z M7.5,1.1
					c-0.4,0-0.8,0.3-0.8,0.8c0,0.4,0.3,0.8,0.8,0.8c0.4,0,0.8-0.3,0.8-0.8C8.3,1.5,7.9,1.1,7.5,1.1z"/>
			</g>
		</g>
	</g>
</g>
</svg>
