<?xml version="1.0" encoding="UTF-8" standalone="no"?>
<svg width="20px" height="20px" viewBox="0 0 20 20" version="1.1" xmlns="http://www.w3.org/2000/svg" xmlns:xlink="http://www.w3.org/1999/xlink" xmlns:sketch="http://www.bohemiancoding.com/sketch/ns">
    <!-- Generator: Sketch 3.4 (15575) - http://www.bohemiancoding.com/sketch -->
    <title>Stroke 5</title>
    <desc>Created with Sketch.</desc>
    <defs></defs>
    <g id="Page-1" stroke="none" stroke-width="1" fill="none" fill-rule="evenodd" sketch:type="MSPage">
        <g id="Artboard-1" sketch:type="MSArtboardGroup" transform="translate(-83.000000, -190.000000)" fill="#000000">
            <path d="M96.3418938,200.951591 C95.2908641,200.951591 94.4395777,201.85241 94.4395777,202.962349 L94.4395777,210 L89.6837875,210 C89.6837875,210 89.7399058,197.935455 89.6837875,196.930076 L94.4395777,196.930076 L94.4395777,198.423063 C94.4395777,198.423063 95.9119703,196.972302 98.185238,196.972302 C101.002568,196.972302 103,199.127834 103,203.31021 L103,210 L98.2442098,210 L98.2442098,202.962349 C98.2442098,201.85241 97.3919722,200.951591 96.3418938,200.951591 L96.3418938,200.951591 Z M85.3940648,194.919318 L85.3664812,194.919318 C83.9292814,194.919318 83,193.730961 83,192.424974 C83,191.088825 83.9578161,190 85.4225995,190 C86.888334,190 87.7890807,191.124013 87.8176154,192.460162 C87.8176154,193.767154 86.888334,194.919318 85.3940648,194.919318 L85.3940648,194.919318 Z M87.7814714,210 L83.0256813,210 L83.0256813,196.930076 L87.7814714,196.930076 L87.7814714,210 Z" id="Stroke-5" sketch:type="MSShapeGroup"></path>
        </g>
    </g>
</svg>