<?xml version="1.0" encoding="UTF-8" standalone="no"?>
<svg width="16px" height="16px" viewBox="0 0 16 16" version="1.1" xmlns="http://www.w3.org/2000/svg" xmlns:xlink="http://www.w3.org/1999/xlink">
    <!-- Generator: Sketch 3.8.3 (29802) - http://www.bohemiancoding.com/sketch -->
    <title>Artboard 3 Copy</title>
    <desc>Created with Sketch.</desc>
    <defs></defs>
    <g id="Timers-+-ACtivity-New-Icons" stroke="none" stroke-width="1" fill="#000000" fill-rule="evenodd">
        <g id="Artboard-3-Copy" fill="#000000">
            <path d="M11.5,16 C13.9852814,16 16,13.9852814 16,11.5 C16,9.01471863 13.9852814,7 11.5,7 C9.01471863,7 7,9.01471863 7,11.5 C7,13.9852814 9.01471863,16 11.5,16 L11.5,16 Z M11.5,15 C9.56700338,15 8,13.4329966 8,11.5 C8,9.56700338 9.56700338,8 11.5,8 C13.4329966,8 15,9.56700338 15,11.5 C15,13.4329966 13.4329966,15 11.5,15 L11.5,15 Z" id="Oval-8"></path>
            <path d="M11,9.5 L11,11.5 C11,11.7761424 11.2238576,12 11.5,12 L13,12 C13.2761424,12 13.5,11.7761424 13.5,11.5 C13.5,11.2238576 13.2761424,11 13,11 L11.5,11 L12,11.5 L12,9.5 C12,9.22385763 11.7761424,9 11.5,9 C11.2238576,9 11,9.22385763 11,9.5 L11,9.5 Z" id="Path-52"></path>
            <path d="M5.79031019,13.0067516 L1.15322723,13.0067516 C1.19100354,13.0079472 1.13465186,12.9925248 1.08504058,12.9623586 C1.02917309,12.9283884 1.00470668,12.8923892 0.998527025,12.8120596 C1,12.3571225 1.1609155,11.6919714 1.63404052,11.0256184 C2.41101414,9.93132254 3.82612147,9.20006774 6.08789008,9.03190049 C6.36327232,9.01142524 6.56991526,8.77158536 6.54944001,8.49620313 C6.52896476,8.22082089 6.28912489,8.01417795 6.01374265,8.0346532 C3.46724694,8.22399051 1.77647959,9.09769225 0.81866583,10.4466848 C0.2083308,11.3062855 0,12.1674297 0,12.8504107 C0.0337803431,13.3087264 0.247797543,13.6236255 0.565496381,13.8168022 C0.76185416,13.9361975 0.951471547,13.9880924 1.10027747,14.00394 L5.79031018,14.0067516 C6.06645256,14.0067516 6.29031018,13.782894 6.29031019,13.5067516 C6.29031019,13.2306093 6.06645257,13.0067516 5.79031019,13.0067516 L5.79031019,13.0067516 Z" id="Path-73-Copy"></path>
            <path d="M8.5,7 C10.4329966,7 12,5.43299662 12,3.5 C12,1.56700338 10.4329966,0 8.5,0 C6.56700338,0 5,1.56700338 5,3.5 C5,5.43299662 6.56700338,7 8.5,7 L8.5,7 Z M8.5,6 C7.11928813,6 6,4.88071187 6,3.5 C6,2.11928813 7.11928813,1 8.5,1 C9.88071187,1 11,2.11928813 11,3.5 C11,4.88071187 9.88071187,6 8.5,6 L8.5,6 Z" id="Oval-18"></path>
        </g>
    </g>
</svg>