<?xml version="1.0" encoding="UTF-8" standalone="no"?>
<svg width="20px" height="20px" viewBox="0 0 20 20" version="1.1" xmlns="http://www.w3.org/2000/svg" xmlns:xlink="http://www.w3.org/1999/xlink" xmlns:sketch="http://www.bohemiancoding.com/sketch/ns">
    <!-- Generator: Sketch 3.3.3 (12072) - http://www.bohemiancoding.com/sketch -->
    <title>milestone-icon</title>
    <desc>Created with Sketch.</desc>
    <defs>
        <path d="M7.4784429,0 C6.65403977,0 5.98315307,0.673 5.98315307,1.5 L5.98315307,1.5 L5.98315307,3 L0.500423665,3 C0.225290335,3 0.00199371978,3.225 0.00199371978,3.5 L0.00199371978,3.5 L0,9.437 C0,9.713 0.238249514,10 0.514379704,10 L0.514379704,10 L5.98115935,9.999 L5.98315307,9.999 L10.9674525,9.999 L14.9528984,9.999 L16.3385336,10 C16.5727957,9.922 19.2852515,7.618 19.6331556,7.296 L19.6331556,7.296 C19.8135872,7.13 20,6.874 20,6.499 L20,6.499 C20,6.061 19.8145841,5.848 19.6331556,5.686 L19.6331556,5.686 C19.416837,5.496 16.3385336,3.015 16.3385336,3.015 L16.3385336,3.015 C16.3385336,3.015 15.0505906,2.999 14.9528984,2.999 L14.9528984,2.999 L10.9674525,3 L10.9674525,1.5 C10.9674525,0.673 10.2965658,0 9.47216269,0 L9.47216269,0 L7.4784429,0 Z M7.002,1.5 C7.002,1.224 7.227,1 7.502,1 L7.502,1 L9.502,1 C9.778,1 10.002,1.224 10.002,1.5 L10.002,1.5 L10.002,3 L7.002,3 L7.002,1.5 Z M1,3.999 L16,3.999 L18.9763432,6.499 L16,8.999 L1,8.999 L1,3.999 Z M11,9.999 L6.002,9.999 L6.002,19.5 C6.002,19.776 6.226,20 6.502,20 L6.502,20 L10.502,20 C10.778,20 11.002,19.776 11.002,19.5 L11.002,19.5 L11.002,9.999 L11,9.999 Z M7.062,10 L10.002,10 L10.002,19 L7.002,19 L7.062,10 Z" id="path-1"></path>
    </defs>
    <g id="Page-1" stroke="none" stroke-width="1" fill="none" fill-rule="evenodd" sketch:type="MSPage">
        <g id="milestone-icon" sketch:type="MSArtboardGroup">
            <mask id="mask-2" sketch:name="Clip 2" fill="white">
                <use xlink:href="#path-1"></use>
            </mask>
            <use id="Clip-2" fill="#000000" sketch:type="MSShapeGroup" xlink:href="#path-1"></use>
        </g>
    </g>
</svg>