<?xml version="1.0" encoding="UTF-8" standalone="no"?>
<svg width="19px" height="19px" viewBox="0 0 19 19" version="1.1" xmlns="http://www.w3.org/2000/svg" xmlns:xlink="http://www.w3.org/1999/xlink" xmlns:sketch="http://www.bohemiancoding.com/sketch/ns">
    <!-- Generator: Sketch 3.3.3 (12072) - http://www.bohemiancoding.com/sketch -->
    <title>Artboard 1</title>
    <desc>Created with Sketch.</desc>
    <defs></defs>
    <g id="Page-1" stroke="none" stroke-width="1" fill="none" fill-rule="evenodd" sketch:type="MSPage">
        <g id="Artboard-1" sketch:type="MSArtboardGroup" fill="#000000">
            <g id="0876-pause-circle" sketch:type="MSLayerGroup">
                <path d="M9.5,19 C6.962,19 4.577,18.012 2.782,16.218 C0.987,14.424 0,12.038 0,9.501 C0,6.963 0.988,4.578 2.782,2.783 C4.576,0.988 6.962,0 9.5,0 C12.038,0 14.423,0.988 16.218,2.783 C18.013,4.578 19,6.963 19,9.501 C19,12.039 18.012,14.424 16.218,16.218 C14.424,18.012 12.038,19 9.5,19 L9.5,19 Z M9.5,1 C4.813,1 1,4.813 1,9.5 C1,14.187 4.813,18 9.5,18 C14.187,18 18,14.187 18,9.5 C18,4.813 14.187,1 9.5,1 L9.5,1 Z" id="Shape" sketch:type="MSShapeGroup"></path>
                <rect id="Rectangle-1" sketch:type="MSShapeGroup" x="10" y="5.5" width="3" height="8"></rect>
                <rect id="Rectangle-1-Copy" sketch:type="MSShapeGroup" x="6" y="5.5" width="3" height="8"></rect>
            </g>
        </g>
    </g>
</svg>