<?xml version="1.0" encoding="UTF-8" standalone="no"?>
<svg width="25px" height="19px" viewBox="0 0 25 19" version="1.1" xmlns="http://www.w3.org/2000/svg" xmlns:xlink="http://www.w3.org/1999/xlink" xmlns:sketch="http://www.bohemiancoding.com/sketch/ns">
    <!-- Generator: Sketch 3.4 (15575) - http://www.bohemiancoding.com/sketch -->
    <title>post-paid-icon</title>
    <desc>Created with Sketch.</desc>
    <defs></defs>
    <g id="Page-1" stroke="none" stroke-width="1" fill="none" fill-rule="evenodd" sketch:type="MSPage">
        <g id="post-paid-icon" sketch:type="MSLayerGroup" fill="#000000">
            <g id="Shape-Copy-+-Shape-+-Shape" sketch:type="MSShapeGroup">
                <path d="M4.01234702,6.56637566 C9.96882389,6.52494168 13.5081668,5.16517834 13.5081668,3.5 C13.5081668,3.22385763 13.2843092,3 13.0081668,3 C12.7320244,3 12.5081668,3.22385763 12.5081668,3.5 C12.5081668,4.35215563 9.44610772,5.52855356 4.00539107,5.56639985 C2.73598348,5.57523 1.58697059,5.5168401 0.557620541,5.39751986 C0.283314937,5.36572289 0.0351697752,5.56231499 0.00337280863,5.83662059 C-0.0284241579,6.11092619 0.168167935,6.35907136 0.442473539,6.39086832 C1.51355668,6.51502618 2.70322464,6.57548207 4.01234702,6.56637566 Z M4.03759329,10.6669123 C4.78571527,10.6617083 5.49346206,10.6370354 6.16105169,10.5937268 C10.7841718,10.293811 13.5334131,9.03672097 13.5334131,7.60053665 C13.5334131,7.32439428 13.3095554,7.10053665 13.0334131,7.10053665 C12.7572707,7.10053665 12.5334131,7.32439428 12.5334131,7.60053665 C12.5334131,8.27532223 10.2322877,9.32751136 6.09631473,9.59582448 C5.44831316,9.63786231 4.75981137,9.66186428 4.03063733,9.6669365 C3.75450164,9.66885734 3.53220657,9.89426669 3.53412741,10.1704024 C3.53604824,10.4465381 3.76145759,10.6688331 4.03759329,10.6669123 Z M7.34275652,14.6663169 C11.2741872,14.2472842 13.5556136,13.0996194 13.5317798,11.7647787 C13.52685,11.4886803 13.2990316,11.2688547 13.0229333,11.2737845 C12.7468349,11.2787143 12.5270093,11.5065327 12.5319391,11.782631 C12.5424662,12.3722132 10.6905171,13.3038307 7.23677155,13.6719492 C6.96218448,13.7012161 6.76331323,13.9475385 6.79258017,14.2221255 C6.82184711,14.4967126 7.06816946,14.6955838 7.34275652,14.6663169 Z" id="Shape-Copy" transform="translate(6.766707, 8.834587) scale(-1, 1) translate(-6.766707, -8.834587) "></path>
                <path d="M23.3075417,13.0355339 L12.4615385,13.0355339 C12.2066378,13.0355339 12,12.8116763 12,12.5355339 C12,12.2593915 12.2066378,12.0355339 12.4615385,12.0355339 L23.2928932,12.0355339 L20.6109127,9.35355339 C20.4156506,9.15829124 20.4156506,8.84170876 20.6109127,8.64644661 C20.8061749,8.45118446 21.1227573,8.45118446 21.3180195,8.64644661 L24.8535534,12.1819805 C24.9590426,12.2874697 25.0075419,12.4283678 24.9990513,12.566416 C24.9952622,12.689154 24.9465265,12.8107626 24.8528442,12.9044449 L21.3173103,16.4399788 C21.1220482,16.6352409 20.8054657,16.6352409 20.6102036,16.4399788 C20.4149414,16.2447166 20.4149414,15.9281342 20.6102036,15.732872 L23.3075417,13.0355339 Z" id="Shape"></path>
                <path d="M6.54962001,17.9103123 C3.38450975,17.5915013 1.03748203,16.6513159 1.04726832,16.3235557 C1.02889163,15.6643221 1.02398616,13.2499533 1.02939925,9.63709135 C1.03114522,8.47178278 1.03390388,7.23092106 1.03739818,5.96015686 C1.03959643,5.16072629 1.0419517,4.39792727 1.04430695,3.69762451 C1.04572004,3.27746035 1.04681915,2.9714839 1.04744691,2.80564883 C1.12711217,2.14394676 5.11808289,1.0649044 9.51210121,1.09527423 C13.9349132,1.09590832 17.8392022,2.11965561 17.9941424,2.91470239 L19,2.69218082 C18.6903705,1.10337497 14.4878943,0.00143973431 9.51550117,0.000739275943 C4.53805157,-0.0336740684 0.207881243,1.137078 0.023950373,2.73690129 C0.0195151632,2.9672879 0.018415684,3.27336668 0.0170020155,3.69370245 C0.0146459995,4.3942329 0.0122900022,5.15726788 0.0100910652,5.95695015 C0.00659551287,7.22816954 0.00383579133,8.46950521 0.00208903343,9.63534408 C-0.00335859628,13.2712563 0.00153536313,15.6799577 0.0204688311,16.3233063 C-0.0168029442,17.5372989 2.68789097,18.6207601 6.45292981,19 L6.54962001,17.9103123 L6.54962001,17.9103123 Z" id="Shape"></path>
            </g>
        </g>
    </g>
</svg>