<?xml version="1.0" encoding="UTF-8" standalone="no"?>
<svg width="20px" height="20px" viewBox="0 0 20 20" version="1.1" xmlns="http://www.w3.org/2000/svg" xmlns:xlink="http://www.w3.org/1999/xlink" xmlns:sketch="http://www.bohemiancoding.com/sketch/ns">
    <!-- Generator: Sketch 3.3.3 (12072) - http://www.bohemiancoding.com/sketch -->
    <title>20x20</title>
    <desc>Created with Sketch.</desc>
    <defs></defs>
    <g id="Page-1" stroke="none" stroke-width="1" fill="none" fill-rule="nonzero" sketch:type="MSPage">
        <g id="20x20" sketch:type="MSArtboardGroup" fill="#000000">
            <g id="Group" sketch:type="MSLayerGroup" transform="translate(0.000000, 1.000000)">
                <path d="M1,1.0093 L1,1.0093 L1,2.9903 C1,3.00400173 0.996344094,3.0003 0.992,3.0003 L19.008,3.0003 C18.9942123,3.0003 19,2.99445229 19,2.9903 L19,1.0093 C19,0.996093151 19.0041605,1.0003 19.008,1.0003 L0.992,1.0003 C1.00578597,1.0003 1,1.00614195 1,1.0093 L1,1.0093 Z M0,1.0093 C0,0.4523 0.455,0.0003 0.992,0.0003 L19.008,0.0003 C19.556,0.0003 20,0.4433 20,1.0093 L20,2.9903 C20,3.5483 19.545,4.0003 19.008,4.0003 L0.992,4.0003 C0.444,4.0003 0,3.5563 0,2.9903 L0,1.0093 L0,1.0093 Z" id="top-rec" sketch:type="MSShapeGroup"></path>
                <path d="M1,8.0098 L1,8.0098 L1,9.9898 C1,10.0030081 0.996816158,9.9998 0.996,9.9998 L10.005,9.9998 C9.99919371,9.9998 10,9.99898139 10,9.9898 L10,8.0098 C10,7.99659372 10.0031754,7.9998 10.005,7.9998 L0.996,7.9998 C1.00080296,7.9998 1,8.00061466 1,8.0098 L1,8.0098 Z M0,8.0098 C0,7.4518 0.445,6.9998 0.996,6.9998 L10.005,6.9998 C10.555,6.9998 11,7.4438 11,8.0098 L11,9.9898 C11,10.5478 10.555,10.9998 10.005,10.9998 L0.996,10.9998 C0.446,10.9998 0,10.5568 0,9.9898 L0,8.0098 L0,8.0098 Z" id="mid-rec" sketch:type="MSShapeGroup"></path>
                <path d="M7,14.9998 L7,14.9998 L7,16.9998 C7,17.0015139 6.99827901,16.9998 7,16.9998 L17,16.9998 C16.9937076,16.9998 17,16.9935248 17,16.9998 L17,14.9998 C17,14.9985853 17.0012189,14.9998 17,14.9998 L7,14.9998 C7.00629244,14.9998 7,15.0060752 7,14.9998 L7,14.9998 Z M6,14.9998 C6,14.4518 6.456,13.9998 7,13.9998 L17,13.9998 C17.551,13.9998 18,14.4438 18,14.9998 L18,16.9998 C18,17.5478 17.544,17.9998 17,17.9998 L7,17.9998 C6.449,17.9998 6,17.5568 6,16.9998 L6,14.9998 L6,14.9998 Z" id="bot-rec" sketch:type="MSShapeGroup"></path>
                <path d="M2,3 L2,7.9998 L3,7.9998 L3,3 L2,3 L2,3 Z M3,3 L2,3 L2,7.9998 L3,7.9998 L3,3 L3,3 Z" id="top-line" sketch:type="MSShapeGroup"></path>
                <path d="M8,10 L8,15 L9,15 L9,10 L8,10 L8,10 Z M9,10 L8,10 L8,15 L9,15 L9,10 L9,10 Z" id="bot-line" sketch:type="MSShapeGroup"></path>
            </g>
        </g>
    </g>
</svg>