<?xml version="1.0" encoding="UTF-8"?>
<svg width="20px" height="20px" viewBox="0 0 20 20" version="1.1" xmlns="http://www.w3.org/2000/svg" xmlns:xlink="http://www.w3.org/1999/xlink">
    <!-- Generator: Sketch 42 (36781) - http://www.bohemiancoding.com/sketch -->
    <title>question-circle copy 2</title>
    <desc>Created with Sketch.</desc>
    <defs></defs>
    <g id="Page-1" stroke="none" stroke-width="1" fill="none" fill-rule="evenodd">
        <g id="question-circle-copy-2" fill-rule="nonzero" fill="#000000">
            <g id="Group-2" transform="translate(6.500000, 3.000000)">
                <path d="M4,7.5 C5.93299662,7.5 7.5,5.93299662 7.5,4 C7.5,2.06700338 5.93299662,0.5 4,0.5 C2.06700338,0.5 0.5,2.06700338 0.5,4 C0.5,4.27614237 0.723857625,4.5 1,4.5 C1.27614237,4.5 1.5,4.27614237 1.5,4 C1.5,2.61928813 2.61928813,1.5 4,1.5 C5.38071187,1.5 6.5,2.61928813 6.5,4 C6.5,5.38071187 5.38071187,6.5 4,6.5 C3.72385763,6.5 3.5,6.72385763 3.5,7 C3.5,7.27614237 3.72385763,7.5 4,7.5 Z" id="Oval"></path>
                <g id="Group" transform="translate(3.500000, 5.700000)">
                    <path d="M1,5.80000019 L1,4.80000019 C1,4.52385782 0.776142375,4.30000019 0.5,4.30000019 C0.223857625,4.30000019 0,4.52385782 0,4.80000019 L0,5.80000019 C0,6.07614257 0.223857625,6.30000019 0.5,6.30000019 C0.776142375,6.30000019 1,6.07614257 1,5.80000019 Z" id="Line"></path>
                    <path d="M1,2.66666667 L1,1.33333333 C1,1.05719096 0.776142375,0.833333333 0.5,0.833333333 C0.223857625,0.833333333 0,1.05719096 0,1.33333333 L0,2.66666667 C0,2.94280904 0.223857625,3.16666667 0.5,3.16666667 C0.776142375,3.16666667 1,2.94280904 1,2.66666667 Z" id="Line-Copy"></path>
                </g>
            </g>
            <path d="M10.5,18 C15.1944204,18 19,14.1944204 19,9.5 C19,4.80557963 15.1944204,1 10.5,1 C5.80557963,1 2,4.80557963 2,9.5 C2,14.1944204 5.80557963,18 10.5,18 Z M10.5,19 C5.25329488,19 1,14.7467051 1,9.5 C1,4.25329488 5.25329488,0 10.5,0 C15.7467051,0 20,4.25329488 20,9.5 C20,14.7467051 15.7467051,19 10.5,19 Z" id="Oval-2"></path>
        </g>
    </g>
</svg>