<?xml version="1.0" encoding="UTF-8" standalone="no"?>
<svg width="20px" height="20px" viewBox="0 0 20 20" version="1.1" xmlns="http://www.w3.org/2000/svg" xmlns:xlink="http://www.w3.org/1999/xlink" xmlns:sketch="http://www.bohemiancoding.com/sketch/ns">
    <!-- Generator: Sketch 3.3.3 (12072) - http://www.bohemiancoding.com/sketch -->
    <title>quotes-icon</title>
    <desc>Created with Sketch.</desc>
    <defs></defs>
    <g id="Page-1" stroke="none" stroke-width="1" fill="none" fill-rule="evenodd" sketch:type="MSPage">
        <g id="quotes-icon" sketch:type="MSArtboardGroup" fill="#000000">
            <path d="M17.0005,5.9884 L17.0005,1.4884 C17.0005,0.6614 16.3275,-0.0116 15.5005,-0.0116 L6.0005,-0.0116 C5.8675,-0.0116 5.7405,0.0404 5.6465,0.1344 L1.1465,4.6344 C1.0535,4.7284 1.0005,4.8554 1.0005,4.9884 L1.0005,17.4884 C1.0005,18.3154 1.6735,18.9884 2.5005,18.9884 L11.9905,18.9884 L12.0215,17.9884 L2.5005,17.9884 C2.2255,17.9884 2.0005,17.7644 2.0005,17.4884 L2.0005,5.9884 L5.5005,5.9884 C6.3275,5.9884 7.0005,5.3154 7.0005,4.4884 L7.0005,0.9884 L15.5005,0.9884 C15.7755,0.9884 16.0005,1.2124 16.0005,1.4884 L16.0005,5.9884 L17.0005,5.9884 Z M6.0005,1.1954 L6.0005,4.4884 C6.0005,4.7644 5.7755,4.9884 5.5005,4.9884 L2.2075,4.9884 L6.0005,1.1954 Z" id="Fill-1" sketch:type="MSShapeGroup"></path>
            <path d="M17.9995,9.9863 L15.4995,9.9863 C15.2245,9.9863 14.9995,10.2103 14.9995,10.4863 C14.9995,10.7623 15.2245,10.9863 15.4995,10.9863 L17.9995,10.9863 L17.9995,12.9863 L16.4995,12.9863 C16.2245,12.9863 15.9995,13.2103 15.9995,13.4863 C15.9995,13.7623 16.2245,13.9863 16.4995,13.9863 L17.9995,13.9863 L17.9995,15.9863 L15.4995,15.9863 C15.2245,15.9863 14.9995,16.2103 14.9995,16.4863 C14.9995,16.7623 15.2245,16.9863 15.4995,16.9863 L17.9995,16.9863 M17.9995,18.4943 C17.9995,18.7703 17.7745,18.9943 17.4995,18.9943 L14.4995,18.9943 C14.2245,18.9943 13.9995,18.7703 13.9995,18.4943 L13.9995,8.4863 C13.9995,8.2103 14.2245,7.9863 14.4995,7.9863 L17.4995,7.9863 C17.7745,7.9863 17.9995,8.2103 17.9995,8.4863 M14.4995,19.9943 L17.4995,19.9943 C18.3265,19.9943 18.9995,19.3213 18.9995,18.4943 L18.9995,8.4863 C18.9995,7.6593 18.3265,6.9863 17.4995,6.9863 L14.4995,6.9863 C13.6725,6.9863 12.9995,7.6593 12.9995,8.4863 L12.9995,18.4943 C12.9995,19.3213 13.6725,19.9943 14.4995,19.9943" id="Fill-3" sketch:type="MSShapeGroup"></path>
            <path d="M10.4995,9.9863 L6.9995,9.9863 L6.9995,8.9863 L10.4995,8.9863 C10.7755,8.9863 10.9995,8.7623 10.9995,8.4863 C10.9995,8.2103 10.7755,7.9863 10.4995,7.9863 L8.9995,7.9863 L8.9995,7.4863 C8.9995,7.2103 8.7755,6.9863 8.4995,6.9863 C8.2235,6.9863 7.9995,7.2103 7.9995,7.4863 L7.9995,7.9863 L6.4995,7.9863 C6.2235,7.9863 5.9995,8.2103 5.9995,8.4863 L5.9995,10.4863 C5.9995,10.7623 6.2235,10.9863 6.4995,10.9863 L9.9995,10.9863 L9.9995,11.9863 L6.4995,11.9863 C6.2235,11.9863 5.9995,12.2103 5.9995,12.4863 C5.9995,12.7623 6.2235,12.9863 6.4995,12.9863 L7.9995,12.9863 L7.9995,13.4863 C7.9995,13.7623 8.2235,13.9863 8.4995,13.9863 C8.7755,13.9863 8.9995,13.7623 8.9995,13.4863 L8.9995,12.9863 L10.4995,12.9863 C10.7755,12.9863 10.9995,12.7623 10.9995,12.4863 L10.9995,10.4863 C10.9995,10.2103 10.7755,9.9863 10.4995,9.9863" id="Fill-6" sketch:type="MSShapeGroup"></path>
        </g>
    </g>
</svg>