<?xml version="1.0" encoding="UTF-8" standalone="no"?>
<svg width="20px" height="20px" viewBox="0 0 20 20" version="1.1" xmlns="http://www.w3.org/2000/svg" xmlns:xlink="http://www.w3.org/1999/xlink" xmlns:sketch="http://www.bohemiancoding.com/sketch/ns">
    <!-- Generator: Sketch 3.4 (15575) - http://www.bohemiancoding.com/sketch -->
    <title>requests-icon</title>
    <desc>Created with Sketch.</desc>
    <defs></defs>
    <g id="Page-1" stroke="none" stroke-width="1" fill="none" fill-rule="evenodd" sketch:type="MSPage">
        <g id="requests-icon" sketch:type="MSArtboardGroup" fill="#000000">
            <path d="M18,17.5 C18,17.776 17.775,18 17.5,18 L1.5,18 C1.225,18 1,17.776 1,17.5 L1,13.5 C1,13.224 1.225,13 1.5,13 L6.036,13 C6.279,14.694 7.74,16 9.5,16 C11.26,16 12.721,14.694 12.964,13 L17.5,13 C17.775,13 18,13.224 18,13.5 L18,17.5 Z M18.5,11.382 L15.895,6.171 C15.566,5.514 14.734,5 14,5 L12.252,5 C11.977,5 11.752,5.224 11.752,5.5 C11.752,5.776 11.977,6 12.252,6 L14,6 C14.361,6 14.838,6.295 15,6.618 L17.605,11.829 C17.634,11.884 17.661,11.946 17.687,12.012 C17.626,12.004 17.564,12 17.5,12 L12.5,12 C12.225,12 12,12.224 12,12.5 C12,13.878 10.878,15 9.5,15 C8.122,15 7,13.878 7,12.5 C7,12.224 6.775,12 6.5,12 L1.5,12 C1.437,12 1.375,12.004 1.312,12.012 C1.339,11.946 1.366,11.884 1.395,11.829 L4,6.618 C4.162,6.295 4.639,6 5,6 L7.002,6 C7.277,6 7.502,5.776 7.502,5.5 C7.502,5.224 7.277,5 7.002,5 L5,5 C4.266,5 3.434,5.514 3.105,6.171 L0.5,11.382 C0.221,11.943 0,12.873 0,13.5 L0,17.5 C0,18.327 0.673,19 1.5,19 L17.5,19 C18.327,19 19,18.327 19,17.5 L19,13.5 C19,12.873 18.779,11.943 18.5,11.382 Z M11.8535,8.6465 C11.6595,8.4515 11.3415,8.4515 11.1465,8.6465 L10.0005,9.7925 L10.0005,2.9365 C10.0005,2.6605 9.7775,2.4365 9.5005,2.4365 C9.2245,2.4365 9.0005,2.6605 9.0005,2.9365 L9.0005,9.7925 L7.8555,8.6465 C7.6605,8.4515 7.3425,8.4515 7.1485,8.6465 C6.9535,8.8405 6.9535,9.1585 7.1485,9.3525 L9.1485,11.3525 C9.2465,11.4515 9.3745,11.4995 9.5015,11.4995 C9.6295,11.4995 9.7575,11.4505 9.8555,11.3525 L11.8555,9.3525 C12.0505,9.1585 12.0505,8.8405 11.8555,8.6465 L11.8535,8.6465 Z" id="Fill-1" sketch:type="MSShapeGroup"></path>
        </g>
    </g>
</svg>