<?xml version="1.0" encoding="UTF-8" standalone="no"?>
<svg width="20px" height="20px" viewBox="0 0 20 20" version="1.1" xmlns="http://www.w3.org/2000/svg" xmlns:xlink="http://www.w3.org/1999/xlink" xmlns:sketch="http://www.bohemiancoding.com/sketch/ns">
    <!-- Generator: Sketch 3.3.3 (12072) - http://www.bohemiancoding.com/sketch -->
    <title>retainers-icon</title>
    <desc>Created with Sketch.</desc>
    <defs></defs>
    <g id="Page-1" stroke="none" stroke-width="1" fill="none" fill-rule="evenodd" sketch:type="MSPage">
        <g id="retainers-icon" sketch:type="MSArtboardGroup" fill="#000000">
            <path d="M1.5,0.001 C0.673,0.001 0,0.674 0,1.501 L0,1.501 L0,17.501 C0,18.328 0.673,19.001 1.5,19.001 L1.5,19.001 L7.001,19.001 L7.001,18.001 L1.5,18.001 C1.224,18.001 1,17.777 1,17.501 L1,17.501 L1,1.501 C1,1.225 1.224,1.001 1.5,1.001 L1.5,1.001 L14.5,1.001 C14.777,1.001 15,1.225 15,1.501 L15,1.501 L15,3.501 C15,3.777 15.224,4.001 15.5,4.001 L15.5,4.001 C15.777,4.001 16,3.777 16,3.501 L16,3.501 L16,1.501 C16,0.674 15.327,0.001 14.5,0.001 L14.5,0.001 L1.5,0.001 Z M3.5,3.001 C3.224,3.001 3,3.225 3,3.501 L3,3.501 C3,3.777 3.224,4.001 3.5,4.001 L3.5,4.001 L10.5,4.001 C10.776,4.001 11,3.777 11,3.501 L11,3.501 C11,3.225 10.776,3.001 10.5,3.001 L10.5,3.001 L3.5,3.001 Z M3.5,5.001 C3.224,5.001 3,5.225 3,5.501 L3,5.501 C3,5.777 3.224,6.001 3.5,6.001 L3.5,6.001 L12.5,6.001 C12.777,6.001 13,5.777 13,5.501 L13,5.501 C13,5.225 12.777,5.001 12.5,5.001 L12.5,5.001 L3.5,5.001 Z M3.5,7.001 C3.224,7.001 3,7.225 3,7.501 C3,7.777 3.224,8.001 3.5,8.001 L10.5,8.001 C10.776,8.001 11,7.777 11,7.501 C11,7.225 10.776,7.001 10.5,7.001 L3.5,7.001 Z M3.5,9.001 C3.224,9.001 3,9.225 3,9.501 C3,9.777 3.224,10.001 3.5,10.001 L7.5,10.001 C7.776,10.001 8,9.777 8,9.501 C8,9.225 7.776,9.001 7.5,9.001 L3.5,9.001 Z M3.5,15.001 C3.224,15.001 3,15.224 3,15.501 C3,15.778 3.224,16.001 3.5,16.001 L5.53015137,16.001 C5.80615137,16.001 6.03015137,15.778 6.03015137,15.501 C6.03015137,15.224 5.80615137,15.001 5.53015137,15.001 L3.5,15.001 Z" id="Clip-2" sketch:type="MSShapeGroup"></path>
            <path d="M8.40203271,17.2604708 C9.91903271,19.8874708 13.2890327,20.7894708 15.9160327,19.2724708 C16.1540327,19.1364708 16.2370327,18.8304708 16.0980327,18.5904708 C15.9610327,18.3514708 15.6550327,18.2704708 15.4160327,18.4074708 C13.2690327,19.6474708 10.5090327,18.9094708 9.26803271,16.7604708 C8.02803271,14.6114708 8.76903271,11.8534708 10.9160327,10.6134708 C13.0640327,9.37247084 15.8220327,10.1114708 17.0630327,12.2604708 C17.5890327,13.1714708 17.7497502,14.4124708 17.5877502,15.4204708 L17.0307264,14.7852985 C16.8907264,14.5422985 16.5897264,14.4672985 16.3497264,14.6062985 C16.1167264,14.7402985 16.0277264,15.0472985 16.1647264,15.2842985 C16.1647264,15.2842985 17.0196267,16.2533931 17.5510024,16.8717252 C17.7130024,17.0127252 17.9480024,17.0377252 18.1340024,16.9297252 L19.7460327,15.9074708 C19.9850327,15.7704708 20.0670327,15.4634708 19.9290327,15.2244708 C19.7910327,14.9854708 19.4840327,14.9044708 19.2460327,15.0424708 L18.5900327,15.4204708 C18.6560327,15.0244708 18.6800327,14.6234708 18.6590327,14.2234708 C18.6140327,13.3504708 18.3690327,12.5214708 17.9290327,11.7604708 C16.9120327,9.99847084 15.0590327,9.01147084 13.1570327,9.01147084 C12.2240327,9.01147084 11.2800327,9.24847084 10.4160327,9.74747084 C7.79003271,11.2634708 6.88603271,14.6334708 8.40203271,17.2604708 Z" id="Path" sketch:type="MSShapeGroup"></path>
        </g>
    </g>
</svg>