<?xml version="1.0" encoding="UTF-8" standalone="no"?>
<svg width="20px" height="20px" viewBox="0 0 20 20" version="1.1" xmlns="http://www.w3.org/2000/svg" xmlns:xlink="http://www.w3.org/1999/xlink" xmlns:sketch="http://www.bohemiancoding.com/sketch/ns">
    <!-- Generator: Sketch 3.4 (15575) - http://www.bohemiancoding.com/sketch -->
    <title>retainer-period-icon</title>
    <desc>Created with Sketch.</desc>
    <defs></defs>
    <g id="Page-1" stroke="none" stroke-width="1" fill="none" fill-rule="evenodd" sketch:type="MSPage">
        <g id="retainer-period-icon" sketch:type="MSArtboardGroup" fill="#000000">
            <path d="M1.5,0 C0.673,0 0,0.673 0,1.5 L0,17.5 C0,18.327 0.673,19 1.5,19 L5,19 L5,18 L1.5,18 C1.224,18 1,17.776 1,17.5 L1,1.5 C1,1.224 1.224,1 1.5,1 L14.5,1 C14.776,1 15,1.224 15,1.5 L15,3.5 C15,3.776 15.223,4 15.5,4 C15.777,4 16,3.776 16,3.5 L16,1.5 C16,0.673 15.327,0 14.5,0 L1.5,0 Z M3.5,3 C3.225,3 3,3.224 3,3.5 C3,3.776 3.225,4 3.5,4 L10.5,4 C10.776,4 11,3.776 11,3.5 C11,3.224 10.776,3 10.5,3 L3.5,3 Z M3.5,5 C3.225,5 3,5.224 3,5.5 C3,5.776 3.225,6 3.5,6 L5.5,6 C5.776,6 6,5.776 6,5.5 C6,5.224 5.776,5 5.5,5 L3.5,5 Z M16,6.5 L16,7 L10,7 L10,6.5 C10,6.285 9.694,6 9.5,6 C9.307,6 9,6.285 9,6.5 L9,7 L7,7 C6.421,7 6,7.301 6,7.945 L6,18.833 C6,19.476 6.471,20 7.049,20 L18.95,20 C19.529,20 20,19.476 20,18.833 L20,7.945 C20,7.5 20,7 19,7 L17,7 L17,6.5 C17,6.285 16.693,6 16.5,6 C16.307,6 16,6.285 16,6.5 Z M17,9.5 L17,8 L18.667,8 C18.85,8 19,8.224 19,8.5 L19,8.5 L19,11 L7,11 L7,8.5 C7,8.224 7.149,8 7.334,8 L7.334,8 L9,8 L9,9.5 C9,9.776 9.316,10 9.5,10 L9.5,10 C9.684,10 10,9.776 10,9.5 L10,9.5 L10,8 L16,8 L16,9.5 C16,9.776 16.317,10 16.5,10 L16.5,10 C16.684,10 17,9.776 17,9.5 L17,9.5 Z M7,18.682 L7,12 L19,12 L19,18.682 C19,18.857 18.85,19 18.667,19 L18.667,19 L7.334,19 C7.149,19 7,18.857 7,18.682 L7,18.682 Z" id="Clip-2" sketch:type="MSShapeGroup"></path>
        </g>
    </g>
</svg>