<?xml version="1.0" encoding="UTF-8" standalone="no"?>
<svg width="20px" height="20px" viewBox="0 0 20 20" version="1.1" xmlns="http://www.w3.org/2000/svg" xmlns:xlink="http://www.w3.org/1999/xlink" xmlns:sketch="http://www.bohemiancoding.com/sketch/ns">
    <!-- Generator: Sketch 3.4.2 (15855) - http://www.bohemiancoding.com/sketch -->
    <title>sites-svg</title>
    <desc>Created with Sketch.</desc>
    <defs>
        <path id="path-1" d="M0,0.001 L20,0.001 L20,20 L0,20 L0,0.001 Z"></path>
    </defs>
    <g id="Page-1" stroke="none" stroke-width="1" fill="none" fill-rule="evenodd" sketch:type="MSPage">
        <g id="sites-svg" sketch:type="MSArtboardGroup">
            <g id="Page-1" sketch:type="MSLayerGroup">
                <mask id="mask-2" sketch:name="Clip 2" fill="white">
                    <use xlink:href="#path-1"></use>
                </mask>
                <g id="Clip-2"></g>
                <path d="M2.3633,11 L8.5013,11 C8.7773,11 9.0013,11.224 9.0013,11.5 L9.0013,17.638 L18.1293,1.872 L2.3633,11 Z M8.5013,20 C8.4583,20 8.4143,19.994 8.3713,19.983 C8.1533,19.924 8.0013,19.726 8.0013,19.5 L8.0013,12 L0.5013,12 C0.2753,12 0.0773,11.848 0.0173,11.63 C-0.0407,11.412 0.0543,11.181 0.2503,11.068 L19.2503,0.068 C19.4463,-0.045 19.6943,-0.013 19.8533,0.146 C20.0133,0.307 20.0473,0.555 19.9323,0.751 L8.9323,19.751 C8.8423,19.908 8.6753,20 8.5003,20 L8.5013,20 Z" id="Fill-1" fill="#000000" sketch:type="MSShapeGroup" mask="url(#mask-2)"></path>
            </g>
        </g>
    </g>
</svg>