<?xml version="1.0" encoding="UTF-8"?>
<svg width="16px" height="16px" viewBox="0 0 16 16" version="1.1" xmlns="http://www.w3.org/2000/svg" xmlns:xlink="http://www.w3.org/1999/xlink">
    <!-- Generator: Sketch 42 (36781) - http://www.bohemiancoding.com/sketch -->
    <title>split-task-icon-16x16</title>
    <desc>Created with Sketch.</desc>
    <defs></defs>
    <g id="Timers-+-ACtivity-New-Icons" stroke="none" stroke-width="1" fill="none" fill-rule="evenodd">
        <g id="split-task-icon-16x16" fill-rule="nonzero" fill="#000000">
            <g id="Group" transform="translate(4.000000, 0.000000)">
                <path d="M0.5,5 C0.224,5 0,4.776 0,4.5 C0,3.495 0.453,2.714 1.276,2.303 C1.551,2.165 1.823,2.09 2.04,2.049 C2.253,0.885 3.275,0 4.499,0 C5.723,0 6.745,0.885 6.958,2.049 C7.176,2.09 7.447,2.165 7.722,2.303 C8.538,2.711 8.99,3.481 8.998,4.473 C8.999,4.482 8.999,4.491 8.999,4.5 C8.999,4.776 8.775,5 8.499,5 C8.501,5 0.5,5 0.5,5 Z M7.94,4 C7.844,3.644 7.633,3.383 7.302,3.21 C6.913,3.007 6.502,3 6.497,3 C6.221,3 6,2.776 6,2.5 C6,1.673 5.327,1 4.5,1 C3.673,1 3,1.673 3,2.5 C3,2.776 2.776,3 2.5,3 C2.499,3 2.087,3.007 1.698,3.21 C1.367,3.383 1.156,3.643 1.06,4 L7.94,4 Z" id="Shape"></path>
                <path d="M4.147,2.853 C4.055,2.759 4,2.631 4,2.5 C4,2.369 4.053,2.239 4.147,2.147 C4.24,2.054 4.369,2 4.5,2 C4.631,2 4.761,2.053 4.853,2.147 C4.946,2.24 5,2.369 5,2.5 C5,2.631 4.947,2.76 4.853,2.853 C4.76,2.946 4.631,3 4.5,3 C4.368,3 4.239,2.947 4.147,2.853 Z" id="Shape"></path>
            </g>
            <path d="M2,12 L2,14.5 C2,15.327 2.673,16 3.5,16 L13.5,16 C14.327,16 15,15.327 15,14.5 L15,12 L14,12 L14,14.5 C14,14.776 13.776,15 13.5,15 L3.5,15 C3.224,15 3,14.776 3,14.5 L3,12 L2,12 Z M2,7 L2,5 L3,5 L3,7 L2,7 Z M14,7 L14,4.5 L15,4.5 L15,7 L14,7 Z M14,3.99913025 C13.7238576,3.99913025 13.5,3.77614237 13.5,3.5 C13.5,3.22385763 13.7238576,3 14,3 C14.5886866,3 15,3.54593848 15,4.16542244 L15,4.5 L14,4.5 L14,4.16542244 C14,4.04654654 14,3.84983826 14,3.99913025 Z M3,3 C3.27614237,3 3.5,3.22385763 3.5,3.5 C3.5,3.77614237 3.27614237,4 3,4 C3.03506845,4 3,4.04654654 3,4.16542244 L3,5 L2,5 L2,4.16542244 C2,3.54593848 2.41131343,3 3,3 Z" id="Combined-Shape"></path>
            <path d="M15.5,8 L1.5,8 C1.22385763,8 1,8.22385763 1,8.5 C1,8.77614237 1.22385763,9 1.5,9 L15.5,9 C15.7761424,9 16,8.77614237 16,8.5 C16,8.22385763 15.7761424,8 15.5,8 Z" id="Line"></path>
            <path d="M15.5,10 L1.5,10 C1.22385763,10 1,10.2238576 1,10.5 C1,10.7761424 1.22385763,11 1.5,11 L15.5,11 C15.7761424,11 16,10.7761424 16,10.5 C16,10.2238576 15.7761424,10 15.5,10 Z" id="Line-Copy-3"></path>
        </g>
    </g>
</svg>