<?xml version="1.0" encoding="utf-8"?>
<svg version="1.1" id="Layer_1" xmlns="http://www.w3.org/2000/svg" xmlns:xlink="http://www.w3.org/1999/xlink" x="0px" y="0px"
	 viewBox="0 0 20 20" style="enable-background:new 0 0 20 20;" xml:space="preserve">
<path fill="#444444" d="M19,8.3C18.9,8.2,18.8,8,18.6,8l-5.7-1l-2.4-4.8C10.4,2.1,10.2,2,10,2C9.8,2,9.6,2.1,9.6,2.3L7.2,7L1.4,8
	C1.2,8,1.1,8.2,1,8.3C1,8.5,1,8.7,1.1,8.9L5,12.7l-1,5.7c0,0.2,0,0.4,0.2,0.5c0.2,0.1,0.4,0.1,0.5,0l5.3-2.9l5.3,2.9
	c0.1,0,0.2,0.1,0.2,0.1c0.1,0,0.2,0,0.3-0.1c0.2-0.1,0.2-0.3,0.2-0.5l-1-5.7l3.8-3.8C19,8.7,19,8.5,19,8.3z"/>
</svg>
