<?xml version="1.0" encoding="UTF-8" standalone="no"?>
<svg width="17px" height="19px" viewBox="0 0 17 19" version="1.1" xmlns="http://www.w3.org/2000/svg" xmlns:xlink="http://www.w3.org/1999/xlink">
    <!-- Generator: Sketch 3.8.3 (29802) - http://www.bohemiancoding.com/sketch -->
    <title>timer-iconv2</title>
    <desc>Created with Sketch.</desc>
    <defs></defs>
    <g id="Page-1" stroke="none" stroke-width="1" fill="none" fill-rule="evenodd">
        <g id="timer-iconv2" fill="#3299D5">
            <path d="M8.5,18.813326 C13.2039713,18.813326 17.01875,15.0234805 17.01875,10.3466593 C17.01875,5.66983819 13.2039713,1.87999268 8.5,1.87999268 C3.79602871,1.87999268 -0.01875,5.66983819 -0.01875,10.3466593 C-0.01875,15.0234805 3.79602871,18.813326 8.5,18.813326 L8.5,18.813326 Z M8.5,17.713326 C4.40193309,17.713326 1.08125,14.4143467 1.08125,10.3466593 C1.08125,6.27897196 4.40193309,2.97999268 8.5,2.97999268 C12.5980669,2.97999268 15.91875,6.27897196 15.91875,10.3466593 C15.91875,14.4143467 12.5980669,17.713326 8.5,17.713326 L8.5,17.713326 Z" id="Oval"></path>
            <path d="M6.03363037,1.12824707 L11.0283203,1.12824707 C11.3320769,1.12824707 11.5783203,0.882003683 11.5783203,0.57824707 C11.5783203,0.274490458 11.3320769,0.0282470703 11.0283203,0.0282470703 L6.03363037,0.0282470703 C5.72987376,0.0282470703 5.48363037,0.274490458 5.48363037,0.57824707 C5.48363037,0.882003683 5.72987376,1.12824707 6.03363037,1.12824707 L6.03363037,1.12824707 Z" id="Shape"></path>
            <path d="M15.0186185,3.45129285 L15.8686185,4.2957373 C16.0841099,4.50982028 16.4323488,4.50867852 16.6464317,4.29318709 C16.8605147,4.07769566 16.859373,3.7294568 16.6438815,3.51537381 L15.7938815,2.67092937 C15.5783901,2.45684638 15.2301512,2.45798815 15.0160683,2.67347958 C14.8019853,2.888971 14.803127,3.23720987 15.0186185,3.45129285 L15.0186185,3.45129285 Z" id="Shape"></path>
            <path d="M7.95,6 L7.95,10.7999878 C7.95,11.1037444 8.19624339,11.3499878 8.5,11.3499878 C8.80375661,11.3499878 9.05,11.1037444 9.05,10.7999878 L9.05,6 C9.05,5.69624339 8.80375661,5.45 8.5,5.45 C8.19624339,5.45 7.95,5.69624339 7.95,6 L7.95,6 Z" id="Shape"></path>
        </g>
    </g>
</svg>