<?xml version="1.0" encoding="UTF-8" standalone="no"?>
<svg width="20px" height="17px" viewBox="0 0 20 17" version="1.1" xmlns="http://www.w3.org/2000/svg" xmlns:xlink="http://www.w3.org/1999/xlink" xmlns:sketch="http://www.bohemiancoding.com/sketch/ns">
    <!-- Generator: Sketch 3.4 (15575) - http://www.bohemiancoding.com/sketch -->
    <title>Stroke 3</title>
    <desc>Created with Sketch.</desc>
    <defs></defs>
    <g id="Page-1" stroke="none" stroke-width="1" fill="none" fill-rule="evenodd" sketch:type="MSPage">
        <g id="Artboard-1" sketch:type="MSArtboardGroup" transform="translate(-127.000000, -192.000000)" fill="#000000">
            <path d="M147,194.079843 C146.274639,194.403315 145.66334,194.414008 145.014614,194.094101 C145.851363,193.593299 145.889681,193.242203 146.191766,192.295847 C145.409374,192.760114 144.542328,193.096952 143.620032,193.279629 C142.882196,192.492782 141.828908,192 140.665122,192 C138.428444,192 136.615933,193.814293 136.615933,196.049189 C136.615933,196.367314 136.651577,196.676528 136.720192,196.972376 C133.354482,196.803957 130.371057,195.191944 128.374087,192.741401 C128.025664,193.339333 127.825165,194.035288 127.825165,194.77758 C127.825165,196.182855 128.540724,197.421493 129.626983,198.147745 C128.963108,198.126359 128.339333,197.944573 127.793085,197.641597 C127.792194,197.658528 127.792194,197.674568 127.792194,197.69239 C127.792194,199.654607 129.188558,201.290679 131.041169,201.663162 C130.447692,201.824452 129.822135,201.849403 129.211727,201.732668 C129.727678,203.341116 131.222955,204.51203 132.994475,204.545001 C131.262164,205.903048 129.113705,206.4689 127,206.221173 C128.792016,207.369809 130.919979,208.039922 133.206559,208.039922 C140.65532,208.039922 144.726787,201.869898 144.726787,196.518802 C144.726787,196.343254 144.724113,196.169489 144.716093,195.994832 C145.506505,195.424523 146.457316,194.892533 147,194.079843 L147,194.079843 Z" id="Stroke-3" sketch:type="MSShapeGroup"></path>
        </g>
    </g>
</svg>