<svg class="logo-xero-blue" viewBox="0 0 45 46" width="45" height="46" xmlns="http://www.w3.org/2000/svg">
    <title>Xero</title>
    <path class="logo-xero-blue__circle" fill="#1FC0E7" d="M22.457 45.49c12.402 0 22.456-10.072 22.456-22.495C44.913 10.57 34.86.5 22.457.5 10.054.5 0 10.57 0 22.995 0 35.418 10.054 45.49 22.457 45.49"/>
    <path class="logo-xero-blue__text" fill="#fff" d="M10.75 22.935l3.832-3.85c.127-.128.198-.3.198-.482 0-.38-.308-.688-.687-.688-.185 0-.358.072-.488.205l-3.83 3.833-3.845-3.84c-.13-.128-.302-.198-.485-.198-.38 0-.687.308-.687.687 0 .185.074.36.206.49l3.832 3.837-3.83 3.84c-.134.134-.208.308-.208.493 0 .38.308.688.687.688.183 0 .355-.07.485-.2l3.84-3.842 3.825 3.827c.136.14.31.215.498.215.378 0 .686-.308.686-.688 0-.183-.07-.355-.2-.485l-3.83-3.846m22.782.003c0 .69.56 1.25 1.25 1.25.686 0 1.246-.56 1.246-1.25s-.56-1.25-1.247-1.25-1.246.56-1.246 1.25m-2.368 0c0-1.995 1.62-3.62 3.614-3.62 1.99 0 3.613 1.625 3.613 3.62s-1.622 3.62-3.613 3.62c-1.993 0-3.614-1.623-3.614-3.62m-1.422 0c0 2.78 2.26 5.044 5.036 5.044s5.036-2.262 5.036-5.043c0-2.78-2.26-5.044-5.036-5.044-2.777 0-5.036 2.263-5.036 5.044m-.357-4.958h-.21c-.635 0-1.247.2-1.758.595-.07-.306-.346-.54-.674-.54-.377 0-.68.305-.68.684l.002 8.495c0 .377.31.684.685.684.378 0 .686-.307.687-.686v-5.224c0-1.74.16-2.444 1.648-2.63.14-.017.288-.014.29-.014.406-.015.696-.296.696-.675 0-.38-.31-.688-.69-.688m-13.182 4.127c0-.02.002-.04.003-.058.398-1.58 1.826-2.747 3.525-2.747 1.72 0 3.16 1.194 3.54 2.802H16.2zm8.473-.13c-.296-1.403-1.063-2.556-2.23-3.296-1.708-1.086-3.962-1.026-5.61.15-1.346.957-2.123 2.525-2.123 4.14 0 .405.05.814.15 1.217.508 2 2.226 3.516 4.274 3.767.608.074 1.2.04 1.81-.12.528-.13 1.037-.342 1.506-.644.487-.313.894-.727 1.29-1.222.006-.01.014-.017.022-.027.274-.34.223-.826-.077-1.056-.254-.195-.68-.274-1.014.156-.072.104-.153.21-.24.315-.267.295-.598.58-.994.802-.506.27-1.08.423-1.69.427-1.998-.023-3.066-1.42-3.447-2.416-.066-.187-.117-.38-.153-.58l-.01-.105h7.17c.982-.022 1.51-.717 1.364-1.51z"/>
</svg>
