<?xml version="1.0" encoding="UTF-8" standalone="no"?>
<svg width="23px" height="16px" viewBox="0 0 23 16" version="1.1" xmlns="http://www.w3.org/2000/svg" xmlns:xlink="http://www.w3.org/1999/xlink" xmlns:sketch="http://www.bohemiancoding.com/sketch/ns">
    <!-- Generator: Sketch 3.4 (15575) - http://www.bohemiancoding.com/sketch -->
    <title>youtube</title>
    <desc>Created with Sketch.</desc>
    <defs></defs>
    <g id="Page-1" stroke="none" stroke-width="1" fill="none" fill-rule="evenodd" sketch:type="MSPage">
        <g id="Artboard-1" sketch:type="MSArtboardGroup" transform="translate(-57.000000, -118.000000)" fill="#000000">
            <g id="youtube" sketch:type="MSLayerGroup" transform="translate(57.000000, 118.000000)">
                <path d="M10,11 L10,11 L10,11 L10,11 L15,8 L10,5 L10,11 Z M9,11 L9,11 L9,5 C9,4.22270552 9.84797124,3.74259237 10.5144958,4.14250707 L15.5144958,7.14250707 C16.1618347,7.53091047 16.1618347,8.46908953 15.5144958,8.85749293 L10.5144958,11.8574929 C9.84797124,12.2574076 9,11.7772945 9,11 L9,11 Z" id="Shape" sketch:type="MSShapeGroup"></path>
                <path d="M22,3.439 L22,3.439 C22,2.0915041 20.9089344,1 19.563,1 L3.437,1 C2.09106557,1 1,2.0915041 1,3.439 L1,12.56 C1,13.9083862 2.09095607,15 3.437,15 L19.563,15 C20.9090439,15 22,13.9083862 22,12.56 L22,3.439 Z M23,3.439 L23,3.439 L23,12.56 C23,14.461 21.461,16 19.563,16 L3.437,16 C1.539,16 0,14.461 0,12.56 L0,3.439 C0,1.539 1.539,0 3.437,0 L19.563,0 C21.461,0 23,1.539 23,3.439 L23,3.439 Z" id="Shape" sketch:type="MSShapeGroup"></path>
            </g>
        </g>
    </g>
</svg>